<svg width="148" height="162" viewBox="0 0 148 162" fill="none" xmlns="http://www.w3.org/2000/svg">
<path opacity="0.15" fill-rule="evenodd" clip-rule="evenodd" d="M63.4635 60.4443L2.50802 0.426601C1.57625 -0.490827 0 0.169246 0 1.47686L9.49384e-06 80.231C9.54144e-06 80.6258 0.15845 81.0042 0.439818 81.2812L81.6782 161.27C82.61 162.187 84.1862 161.527 84.1862 160.22V101.252L145.142 161.27C146.073 162.187 147.65 161.527 147.65 160.22V81.4655C147.65 81.0706 147.491 80.6923 147.21 80.4152L65.9715 0.426601C65.0397 -0.490827 63.4635 0.169246 63.4635 1.47686L63.4635 60.4443Z" fill="#65B2FF"/>
<path d="M126.124 84.9538V90.7675H116.479C116.376 89.947 116.083 89.2195 115.607 88.6549C114.994 87.9294 114.118 87.5227 113.104 87.5227C112.091 87.5227 111.214 87.9294 110.602 88.6549C110.125 89.2195 109.833 89.947 109.73 90.7675H105.522C105.42 89.947 105.127 89.2195 104.65 88.6549C104.038 87.9294 103.162 87.5227 102.148 87.5227C101.134 87.5227 100.258 87.9294 99.6455 88.6549C99.169 89.2195 98.8762 89.947 98.7739 90.7675H94.5656C94.4633 89.947 94.1705 89.2195 93.694 88.6549C93.0815 87.9294 92.205 87.5227 91.1915 87.5227C90.178 87.5227 89.3015 87.9294 88.689 88.6549C88.2125 89.2195 87.9197 89.947 87.8174 90.7675H83.6501V84.9538C83.6501 83.8576 83.3413 82.8805 82.7375 82.1652C82.125 81.4397 81.2485 81.033 80.235 81.033C79.2215 81.033 78.345 81.4397 77.7325 82.1652C77.1287 82.8805 76.8199 83.8576 76.8199 84.9538V143.361C76.8199 144.457 77.1287 145.435 77.7325 146.15C78.345 146.875 79.2215 147.282 80.235 147.282C81.2485 147.282 82.125 146.875 82.7375 146.15C83.3413 145.435 83.6501 144.457 83.6501 143.361V137.548H87.8174C87.9197 138.368 88.2125 139.096 88.689 139.66C89.3015 140.386 90.178 140.792 91.1915 140.792C92.205 140.792 93.0815 140.386 93.694 139.66C94.1705 139.096 94.4633 138.368 94.5656 137.548H98.7739C98.8762 138.368 99.169 139.096 99.6455 139.66C100.258 140.386 101.134 140.792 102.148 140.792C103.162 140.792 104.038 140.386 104.65 139.66C105.127 139.096 105.42 138.368 105.522 137.548H109.73C109.833 138.368 110.125 139.096 110.602 139.66C111.214 140.386 112.091 140.792 113.104 140.792C114.118 140.792 114.994 140.386 115.607 139.66C116.083 139.096 116.376 138.368 116.479 137.548H126.124V143.361C126.124 144.457 126.433 145.435 127.037 146.15C127.649 146.875 128.526 147.282 129.539 147.282C130.553 147.282 131.429 146.875 132.042 146.15C132.646 145.435 132.954 144.457 132.954 143.361V84.9538C132.954 83.8576 132.646 82.8805 132.042 82.1652C131.429 81.4397 130.553 81.033 129.539 81.033C128.526 81.033 127.649 81.4397 127.037 82.1652C126.433 82.8805 126.124 83.8576 126.124 84.9538ZM87.8174 98.6093C87.9197 99.4298 88.2125 100.157 88.689 100.722C89.3015 101.447 90.178 101.854 91.1915 101.854C92.205 101.854 93.0815 101.447 93.694 100.722C94.1705 100.157 94.4633 99.4298 94.5656 98.6093H98.7739C98.8762 99.4298 99.169 100.157 99.6455 100.722C100.258 101.447 101.134 101.854 102.148 101.854C103.162 101.854 104.038 101.447 104.65 100.722C105.127 100.157 105.42 99.4298 105.522 98.6093H109.73C109.833 99.4298 110.125 100.157 110.602 100.722C111.214 101.447 112.091 101.854 113.104 101.854C114.118 101.854 114.994 101.447 115.607 100.722C116.083 100.157 116.376 99.4298 116.479 98.6093H126.124V110.237H121.957C121.855 109.416 121.562 108.689 121.085 108.124C120.473 107.399 119.596 106.992 118.583 106.992C117.569 106.992 116.693 107.399 116.08 108.124C115.604 108.689 115.311 109.416 115.209 110.237H111C110.898 109.416 110.605 108.689 110.129 108.124C109.516 107.399 108.64 106.992 107.626 106.992C106.613 106.992 105.736 107.399 105.124 108.124C104.647 108.689 104.354 109.416 104.252 110.237H100.044C99.9416 109.416 99.6488 108.689 99.1722 108.124C98.5597 107.399 97.6833 106.992 96.6697 106.992C95.6562 106.992 94.7797 107.399 94.1673 108.124C93.6907 108.689 93.3979 109.416 93.2956 110.237H83.6501V98.6093H87.8174ZM116.479 129.706C116.376 128.885 116.083 128.158 115.607 127.593C114.994 126.868 114.118 126.461 113.104 126.461C112.091 126.461 111.214 126.868 110.602 127.593C110.125 128.158 109.833 128.885 109.73 129.706H105.522C105.42 128.885 105.127 128.158 104.65 127.593C104.038 126.868 103.162 126.461 102.148 126.461C101.134 126.461 100.258 126.868 99.6455 127.593C99.169 128.158 98.8762 128.885 98.7739 129.706H94.5656C94.4633 128.885 94.1705 128.158 93.694 127.593C93.0815 126.868 92.205 126.461 91.1915 126.461C90.178 126.461 89.3015 126.868 88.689 127.593C88.2125 128.158 87.9197 128.885 87.8174 129.706H83.6501V118.078H93.2956C93.3979 118.899 93.6907 119.627 94.1673 120.191C94.7797 120.917 95.6562 121.323 96.6697 121.323C97.6833 121.323 98.5597 120.917 99.1722 120.191C99.6488 119.627 99.9416 118.899 100.044 118.078H104.252C104.354 118.899 104.647 119.627 105.124 120.191C105.736 120.917 106.613 121.323 107.626 121.323C108.64 121.323 109.516 120.917 110.129 120.191C110.605 119.627 110.898 118.899 111 118.078H115.209C115.311 118.899 115.604 119.627 116.08 120.191C116.693 120.917 117.569 121.323 118.583 121.323C119.596 121.323 120.473 120.917 121.085 120.191C121.562 119.627 121.855 118.899 121.957 118.078H126.124V129.706H116.479Z" fill="#FF4D00" stroke="#FF4D00" stroke-width="1.35202"/>
<mask id="mask0_1004_4" style="mask-type:alpha" maskUnits="userSpaceOnUse" x="4" y="0" width="92" height="107">
<path d="M4 0V106.938H62.1711C66.5118 106.938 70.0306 103.42 70.0306 99.0789V80.174C70.0306 76.7015 72.8457 73.8864 76.3182 73.8864H84.6952C90.8962 73.8864 95.9231 68.8595 95.9231 62.6585V0H4Z" fill="#D9D9D9"/>
</mask>
<g mask="url(#mask0_1004_4)">
<path fill-rule="evenodd" clip-rule="evenodd" d="M50.4803 54.7687C52.2349 55.6668 54.1472 56.2804 56.1225 56.6544C57.393 56.8937 58.6654 57 59.9804 57H60.0824C61.3677 57 62.5659 56.8652 63.7492 56.6544C65.7505 56.3089 67.6794 55.6671 69.4342 54.7994C74.913 52.0918 79.1365 47.2443 80.9484 41.2005C81.592 39.091 82 36.8467 82 34.498C82 22.0671 72.0921 12 59.9786 12C53.0957 12 47.0029 15.3057 42.9689 20.4076C39.9012 24.2659 38 29.1439 38 34.4999C38 36.8638 38.3654 39.167 39.009 41.2763C40.8489 47.2438 45.059 52.0894 50.4803 54.7687Z" fill="url(#paint0_linear_1004_4)"/>
<path fill-rule="evenodd" clip-rule="evenodd" d="M83.2705 66.0585L59.9987 66H36.3836C22.9348 66 11.7893 75.5353 8.81673 88.3594C8.31121 90.5156 8 92.7172 8 94.9945V110.09C8 113.354 10.646 116 13.91 116L106.09 115.998C109.354 115.998 112 113.352 112 110.088V94.9942C111.659 80.2647 100.303 66.0587 83.2732 66.0587L83.2705 66.0585Z" fill="url(#paint1_linear_1004_4)"/>
</g>
<defs>
<linearGradient id="paint0_linear_1004_4" x1="60" y1="66" x2="60" y2="116" gradientUnits="userSpaceOnUse">
<stop stop-color="#76ADE3"/>
<stop offset="1" stop-color="#9CC7F4"/>
</linearGradient>
<linearGradient id="paint1_linear_1004_4" x1="60" y1="66" x2="60" y2="116" gradientUnits="userSpaceOnUse">
<stop stop-color="#76ADE3"/>
<stop offset="1" stop-color="#9CC7F4"/>
</linearGradient>
</defs>
</svg>
