<svg width="58" height="68" viewBox="0 0 58 68" fill="none" xmlns="http://www.w3.org/2000/svg">
<path d="M50.1241 4.95433V10.768H40.4786C40.3763 9.94753 40.0835 9.21995 39.6069 8.65542C38.9945 7.92988 38.118 7.52317 37.1045 7.52317C36.0909 7.52317 35.2145 7.92988 34.602 8.65542C34.1255 9.21995 33.8326 9.94753 33.7304 10.768H29.5221C29.4198 9.94753 29.127 9.21995 28.6505 8.65542C28.038 7.92988 27.1615 7.52317 26.148 7.52317C25.1344 7.52317 24.258 7.92988 23.6455 8.65542C23.169 9.21995 22.8762 9.94753 22.7739 10.768H18.5656C18.4633 9.94753 18.1705 9.21995 17.694 8.65542C17.0815 7.92988 16.205 7.52317 15.1915 7.52317C14.178 7.52317 13.3015 7.92988 12.689 8.65542C12.2125 9.21995 11.9197 9.94753 11.8174 10.768H7.65014V4.95433C7.65014 3.8581 7.3413 2.88102 6.73747 2.16571C6.12501 1.44016 5.24854 1.03346 4.235 1.03346C3.22146 1.03346 2.34499 1.44016 1.73253 2.16571C1.1287 2.88102 0.819868 3.8581 0.819868 4.95433V63.3618C0.819868 64.458 1.1287 65.4351 1.73253 66.1504C2.34499 66.8759 3.22146 67.2826 4.235 67.2826C5.24854 67.2826 6.12501 66.8759 6.73747 66.1504C7.3413 65.4351 7.65014 64.458 7.65014 63.3618V57.5481H11.8174C11.9197 58.3686 12.2125 59.0961 12.689 59.6607C13.3015 60.3862 14.178 60.7929 15.1915 60.7929C16.205 60.7929 17.0815 60.3862 17.694 59.6607C18.1705 59.0961 18.4633 58.3686 18.5656 57.5481H22.7739C22.8762 58.3686 23.169 59.0961 23.6455 59.6607C24.258 60.3862 25.1344 60.7929 26.148 60.7929C27.1615 60.7929 28.038 60.3862 28.6505 59.6607C29.127 59.0961 29.4198 58.3686 29.5221 57.5481H33.7304C33.8326 58.3686 34.1255 59.0961 34.602 59.6607C35.2145 60.3862 36.0909 60.7929 37.1045 60.7929C38.118 60.7929 38.9945 60.3862 39.6069 59.6607C40.0835 59.0961 40.3763 58.3686 40.4786 57.5481H50.1241V63.3618C50.1241 64.458 50.4329 65.4351 51.0367 66.1504C51.6492 66.8759 52.5257 67.2826 53.5392 67.2826C54.5527 67.2826 55.4292 66.8759 56.0417 66.1504C56.6455 65.4351 56.9543 64.458 56.9543 63.3618V4.95433C56.9543 3.8581 56.6455 2.88102 56.0417 2.16571C55.4292 1.44016 54.5527 1.03346 53.5392 1.03346C52.5257 1.03346 51.6492 1.44016 51.0367 2.16571C50.4329 2.88102 50.1241 3.8581 50.1241 4.95433ZM11.8174 18.6098C11.9197 19.4303 12.2125 20.1578 12.689 20.7224C13.3015 21.4479 14.178 21.8546 15.1915 21.8546C16.205 21.8546 17.0815 21.4479 17.694 20.7224C18.1705 20.1578 18.4633 19.4303 18.5656 18.6098H22.7739C22.8762 19.4303 23.169 20.1578 23.6455 20.7224C24.258 21.4479 25.1344 21.8546 26.148 21.8546C27.1615 21.8546 28.038 21.4479 28.6505 20.7224C29.127 20.1578 29.4198 19.4303 29.5221 18.6098H33.7304C33.8326 19.4303 34.1255 20.1578 34.602 20.7224C35.2145 21.4479 36.0909 21.8546 37.1045 21.8546C38.118 21.8546 38.9945 21.4479 39.6069 20.7224C40.0835 20.1578 40.3763 19.4303 40.4786 18.6098H50.1241V30.2372H45.9568C45.8545 29.4167 45.5617 28.6891 45.0852 28.1246C44.4727 27.399 43.5963 26.9923 42.5827 26.9923C41.5692 26.9923 40.6927 27.399 40.0802 28.1246C39.6037 28.6891 39.3109 29.4167 39.2086 30.2372H35.0003C34.8981 29.4167 34.6052 28.6891 34.1287 28.1246C33.5162 27.399 32.6398 26.9923 31.6262 26.9923C30.6127 26.9923 29.7362 27.399 29.1238 28.1246C28.6472 28.6891 28.3544 29.4167 28.2521 30.2372H24.0438C23.9416 29.4167 23.6488 28.6891 23.1722 28.1246C22.5597 27.399 21.6833 26.9923 20.6697 26.9923C19.6562 26.9923 18.7797 27.399 18.1673 28.1246C17.6907 28.6891 17.3979 29.4167 17.2956 30.2372H7.65014V18.6098H11.8174ZM40.4786 49.7063C40.3763 48.8858 40.0835 48.1582 39.6069 47.5937C38.9945 46.8682 38.118 46.4615 37.1045 46.4615C36.0909 46.4615 35.2145 46.8682 34.602 47.5937C34.1255 48.1582 33.8326 48.8858 33.7304 49.7063H29.5221C29.4198 48.8858 29.127 48.1582 28.6505 47.5937C28.038 46.8682 27.1615 46.4615 26.148 46.4615C25.1344 46.4615 24.258 46.8682 23.6455 47.5937C23.169 48.1582 22.8762 48.8858 22.7739 49.7063H18.5656C18.4633 48.8858 18.1705 48.1582 17.694 47.5937C17.0815 46.8682 16.205 46.4615 15.1915 46.4615C14.178 46.4615 13.3015 46.8682 12.689 47.5937C12.2125 48.1582 11.9197 48.8858 11.8174 49.7063H7.65014V38.0789H17.2956C17.3979 38.8994 17.6907 39.627 18.1673 40.1915C18.7797 40.9171 19.6562 41.3238 20.6697 41.3238C21.6833 41.3238 22.5597 40.9171 23.1722 40.1915C23.6488 39.627 23.9416 38.8994 24.0438 38.0789H28.2521C28.3544 38.8994 28.6472 39.627 29.1238 40.1915C29.7362 40.9171 30.6127 41.3238 31.6262 41.3238C32.6398 41.3238 33.5162 40.9171 34.1287 40.1915C34.6052 39.627 34.8981 38.8994 35.0003 38.0789H39.2086C39.3109 38.8994 39.6037 39.627 40.0802 40.1915C40.6927 40.9171 41.5692 41.3238 42.5827 41.3238C43.5963 41.3238 44.4727 40.9171 45.0852 40.1915C45.5617 39.627 45.8545 38.8994 45.9568 38.0789H50.1241V49.7063H40.4786Z" fill="#FF4D00" stroke="#FF4D00" stroke-width="1.35202"/>
</svg>
