<svg width="111" height="127" viewBox="0 0 111 127" fill="none" xmlns="http://www.w3.org/2000/svg">
<path d="M14.1304 110.303H35.7068C37.1438 116.628 41.3891 121.955 47.2397 124.771C53.0914 127.588 59.9083 127.588 65.7603 124.771C71.6109 121.955 75.8563 116.628 77.2932 110.303H98.8865H98.8854C103.238 110.295 107.342 108.288 110.016 104.86C112.69 101.432 113.634 96.9654 112.575 92.7513C111.516 88.5373 108.573 85.045 104.595 83.2827L98.5338 80.6158V57.3162C98.5148 49.1308 96.1718 41.118 91.7795 34.207C87.3858 27.2973 81.1202 21.7708 73.7107 18.2695V17.1834C73.7107 11.0444 70.4296 5.37198 65.1054 2.30179C59.78 -0.767263 53.22 -0.767263 47.8946 2.30179C42.5704 5.37198 39.2893 11.0441 39.2893 17.1834V18.1102C31.8978 21.4376 25.6242 26.8237 21.2217 33.6211C16.818 40.4197 14.4728 48.3421 14.4662 56.4374V80.6159L8.40458 83.2828C4.42707 85.0451 1.48407 88.5374 0.424996 92.7514C-0.633788 96.9655 0.310082 101.432 2.98439 104.86C5.6576 108.288 9.76209 110.295 14.1146 110.303L14.1304 110.303ZM56.4989 117.251C54.234 117.248 52.0172 116.593 50.1159 115.364C48.2148 114.135 46.7096 112.383 45.7825 110.319H67.2149C66.2878 112.383 64.7827 114.135 62.8815 115.364C60.9804 116.593 58.7635 117.248 56.4986 117.251H56.4989ZM56.4989 9.59719C58.1512 9.60053 59.7566 10.1419 61.0733 11.14C62.3887 12.137 63.3437 13.5351 63.7922 15.1225C61.8911 14.7761 59.9664 14.5689 58.0342 14.4998C55.0843 14.3906 52.1311 14.5878 49.2215 15.0902C49.6722 13.5084 50.6261 12.1158 51.9382 11.1223C53.2514 10.1286 54.8523 9.58723 56.4992 9.58056L56.4989 9.59719ZM12.2881 92.0469L21.1968 88.1181V88.1192C22.0481 87.7449 22.7711 87.1322 23.2787 86.3558C23.7875 85.5782 24.0586 84.6715 24.0608 83.7435V56.4192C24.0608 47.8295 27.4782 39.5916 33.561 33.5183C39.6438 27.4449 47.8945 24.0316 56.4975 24.0316H57.6969C74.9231 24.6387 88.9349 39.5548 88.9349 57.2802V83.7256C88.9371 84.6535 89.2082 85.5614 89.717 86.3378C90.2246 87.1143 90.9476 87.7281 91.7989 88.1012L100.708 92.0301C101.978 92.6004 102.917 93.7222 103.252 95.0723C103.588 96.4225 103.285 97.8528 102.429 98.9513C101.574 100.049 100.261 100.695 98.8678 100.702H14.0965C12.703 100.695 11.3909 100.049 10.5351 98.9513C9.67938 97.8529 9.37591 96.4226 9.71285 95.0723C10.0487 93.7222 10.987 92.6004 12.2578 92.0301L12.2881 92.0469Z" fill="#FF4D00"/>
<path d="M19.669 84.4606L8.09903 92.7524L5.20654 99.8872L17.5478 105.672H72.5052H104.13L108.372 95.6449L93.7168 83.1108L92.3669 47.051L72.5052 21.5971L42.2304 19.476L22.1758 41.6517L19.669 84.4606Z" fill="#FF4D00"/>
</svg>
