<svg width="28" height="29" viewBox="0 0 28 29" fill="none" xmlns="http://www.w3.org/2000/svg">
<path opacity="0.5" d="M12.3128 28.5257C12.5717 28.5257 12.8305 28.4281 13.032 28.2L25.1432 14.4908C28.0486 11.1693 28.0486 5.79635 25.1432 2.50744C23.7335 0.879272 21.8348 0 19.8499 0C17.8362 0 15.9662 0.879271 14.5567 2.47476L1.55375 17.1934C-0.517513 19.538 -0.517513 23.3805 1.55375 25.7251C3.56743 28.0045 7.07713 28.0045 9.09086 25.7251L22.0938 11.0064C23.3307 9.60628 23.3307 7.32666 22.0938 5.92655C20.8569 4.52644 18.843 4.52644 17.6061 5.92655L5.49496 19.6358C5.09223 20.0916 5.09223 20.8081 5.49496 21.2314C5.8977 21.6873 6.53059 21.6873 6.90462 21.2314L19.0445 7.55478C19.5049 7.03371 20.2241 7.03371 20.6844 7.55478C21.1447 8.07585 21.1447 8.88994 20.6844 9.41101L7.68145 24.1297C6.41562 25.5625 4.25806 25.5625 2.99228 24.1297C2.3594 23.4133 2.01424 22.469 2.01424 21.4921C2.01424 20.4827 2.35939 19.5382 2.99228 18.8545L15.9665 4.10329C17.0021 2.931 18.3829 2.27979 19.8502 2.27979C21.3173 2.27979 22.6982 2.931 23.7339 4.10329C25.8628 6.51304 25.8628 10.4532 23.7339 12.8629L11.6228 26.5721C11.22 27.0279 11.22 27.7444 11.6228 28.1677C11.824 28.3953 12.0829 28.5257 12.3131 28.5257L12.3128 28.5257Z" fill="black"/>
</svg>
