<svg width="159" height="162" viewBox="0 0 159 162" fill="none" xmlns="http://www.w3.org/2000/svg">
<path opacity="0.15" fill-rule="evenodd" clip-rule="evenodd" d="M63.4635 60.4443L2.50802 0.426601C1.57625 -0.490827 0 0.169246 0 1.47686L9.49384e-06 80.231C9.54144e-06 80.6258 0.15845 81.0042 0.439818 81.2812L81.6782 161.27C82.61 162.187 84.1862 161.527 84.1862 160.22V101.252L145.142 161.27C146.073 162.187 147.65 161.527 147.65 160.22V81.4655C147.65 81.0706 147.491 80.6923 147.21 80.4152L65.9715 0.426601C65.0397 -0.490827 63.4635 0.169246 63.4635 1.47686L63.4635 60.4443Z" fill="#65B2FF"/>
<path fill-rule="evenodd" clip-rule="evenodd" d="M95.2846 91.7153C97.8438 89.1561 101.993 89.1561 104.552 91.7153L129.837 117C132.396 119.559 132.396 123.708 129.837 126.267L104.552 151.552C101.993 154.111 97.8438 154.111 95.2846 151.552C92.7254 148.992 92.7254 144.843 95.2846 142.284L115.935 121.633L95.2846 100.983C92.7254 98.4237 92.7254 94.2745 95.2846 91.7153Z" fill="#FF4D00"/>
<path fill-rule="evenodd" clip-rule="evenodd" d="M121.791 91.7153C124.35 89.1561 128.5 89.1561 131.059 91.7153L156.343 117C158.902 119.559 158.902 123.708 156.343 126.267L131.059 151.552C128.5 154.111 124.35 154.111 121.791 151.552C119.232 148.992 119.232 144.843 121.791 142.284L142.442 121.633L121.791 100.983C119.232 98.4237 119.232 94.2745 121.791 91.7153Z" fill="#FF4D00"/>
<mask id="mask0_1003_2" style="mask-type:alpha" maskUnits="userSpaceOnUse" x="21" y="8" width="92" height="107">
<path d="M21 8V114.938H79.1711C83.5118 114.938 87.0306 111.42 87.0306 107.079V88.174C87.0306 84.7015 89.8457 81.8864 93.3182 81.8864H101.695C107.896 81.8864 112.923 76.8595 112.923 70.6585V8H21Z" fill="#D9D9D9"/>
</mask>
<g mask="url(#mask0_1003_2)">
<path fill-rule="evenodd" clip-rule="evenodd" d="M67.4803 62.7687C69.2349 63.6668 71.1472 64.2804 73.1225 64.6544C74.393 64.8937 75.6654 65 76.9804 65H77.0824C78.3677 65 79.5659 64.8652 80.7492 64.6544C82.7505 64.3089 84.6794 63.6671 86.4342 62.7994C91.913 60.0918 96.1365 55.2443 97.9484 49.2005C98.592 47.091 99 44.8467 99 42.498C99 30.0671 89.0921 20 76.9786 20C70.0957 20 64.0029 23.3057 59.9689 28.4076C56.9012 32.2659 55 37.1439 55 42.4999C55 44.8638 55.3654 47.167 56.009 49.2763C57.8489 55.2438 62.059 60.0894 67.4803 62.7687Z" fill="url(#paint0_linear_1003_2)"/>
<path fill-rule="evenodd" clip-rule="evenodd" d="M100.271 74.0585L76.9987 74H53.3836C39.9348 74 28.7893 83.5353 25.8167 96.3594C25.3112 98.5156 25 100.717 25 102.995V118.09C25 121.354 27.646 124 30.91 124L123.09 123.998C126.354 123.998 129 121.352 129 118.088V102.994C128.659 88.2647 117.303 74.0587 100.273 74.0587L100.271 74.0585Z" fill="url(#paint1_linear_1003_2)"/>
</g>
<defs>
<linearGradient id="paint0_linear_1003_2" x1="77" y1="74" x2="77" y2="124" gradientUnits="userSpaceOnUse">
<stop stop-color="#76ADE3"/>
<stop offset="1" stop-color="#9CC7F4"/>
</linearGradient>
<linearGradient id="paint1_linear_1003_2" x1="77" y1="74" x2="77" y2="124" gradientUnits="userSpaceOnUse">
<stop stop-color="#76ADE3"/>
<stop offset="1" stop-color="#9CC7F4"/>
</linearGradient>
</defs>
</svg>
