<svg width="124" height="118" viewBox="0 0 124 118" fill="none" xmlns="http://www.w3.org/2000/svg">
<path d="M114.874 0.102539H8.87888C4.22544 0.102539 0.477295 3.85068 0.477295 8.50412V79.3398C0.477295 83.9933 4.22544 87.7414 8.87888 87.7414H103.227V109.975C103.227 116.696 95.0831 120.057 90.4296 115.275L62.8968 87.7417L114.874 87.7426C119.528 87.7426 123.276 83.9944 123.276 79.341V8.50526C123.276 3.85182 119.527 0.102539 114.874 0.102539ZM89.0215 33.84L60.0667 62.7947C58.9036 63.9579 57.223 64.6044 55.6721 64.6044C54.1211 64.6044 52.4405 63.9579 51.2774 62.7947L34.7309 46.3782C32.2747 43.922 32.2747 39.9151 34.7309 37.5888C37.1871 35.1326 41.194 35.1326 43.5202 37.5888L55.5412 49.6098L79.9718 25.1792C82.428 22.723 86.4349 22.723 88.7611 25.1792C91.477 27.5064 91.4768 31.384 89.0215 33.84Z" fill="url(#paint0_linear_851_267)"/>
<defs>
<linearGradient id="paint0_linear_851_267" x1="61.8766" y1="0.102539" x2="61.8766" y2="117.521" gradientUnits="userSpaceOnUse">
<stop stop-color="#70A7DF"/>
<stop offset="1" stop-color="#AED5FD"/>
</linearGradient>
</defs>
</svg>
