<svg width="96" height="119" viewBox="0 0 96 119" fill="none" xmlns="http://www.w3.org/2000/svg">
<path fill-rule="evenodd" clip-rule="evenodd" d="M10.8929 0.891602C5.25404 0.891602 0.682861 5.46279 0.682861 11.1016V108.1C0.682861 113.739 5.25405 118.31 10.8929 118.31H84.9183C90.5572 118.31 95.1284 113.739 95.1284 108.1V11.1016C95.1284 5.46278 90.5572 0.891602 84.9183 0.891602H10.8929ZM20.2624 50.3876C17.718 50.3876 15.6554 52.4502 15.6554 54.9945C15.6554 57.5389 17.718 59.6015 20.2624 59.6015H76.6993C79.2437 59.6015 81.3063 57.5389 81.3063 54.9945C81.3063 52.4502 79.2437 50.3876 76.6993 50.3876H20.2624ZM15.6554 75.7265C15.6554 73.1821 17.718 71.1195 20.2624 71.1195H76.6993C79.2437 71.1195 81.3063 73.1821 81.3063 75.7265C81.3063 78.2708 79.2437 80.3334 76.6993 80.3334H20.2624C17.718 80.3334 15.6554 78.2708 15.6554 75.7265ZM20.2625 29.6545C17.7181 29.6545 15.6555 31.7171 15.6555 34.2615C15.6555 36.8058 17.7181 38.8684 20.2625 38.8684H76.6994C79.2438 38.8684 81.3064 36.8058 81.3064 34.2615C81.3064 31.7171 79.2438 29.6545 76.6994 29.6545H20.2625Z" fill="url(#paint0_linear_851_319)"/>
<defs>
<linearGradient id="paint0_linear_851_319" x1="0.682862" y1="6.87344" x2="85.4319" y2="118.543" gradientUnits="userSpaceOnUse">
<stop stop-color="#6FA7DE"/>
<stop offset="1" stop-color="#B1D8FF"/>
</linearGradient>
</defs>
</svg>
