<svg width="99" height="94" viewBox="0 0 99 94" fill="none" xmlns="http://www.w3.org/2000/svg">
<path d="M0.608307 54.4665C0.608307 51.2026 3.25424 48.5566 6.51817 48.5566H92.3828C95.6467 48.5566 98.2927 51.2026 98.2927 54.4665V87.2461C98.2927 90.51 95.6467 93.1559 92.3828 93.1559H6.51817C3.25424 93.1559 0.608307 90.51 0.608307 87.2461V54.4665Z" fill="url(#paint0_linear_1007_3)"/>
<path fill-rule="evenodd" clip-rule="evenodd" d="M73.571 17.0351C73.571 17.0352 73.571 17.0352 73.571 17.0352C74.2864 17.3929 75.0662 17.6372 75.8716 17.7862C76.3897 17.8815 76.9085 17.9238 77.4447 17.9238H77.4863C78.0104 17.9238 78.4989 17.8701 78.9814 17.7862C79.7974 17.6485 80.584 17.3929 81.2995 17.0473C83.5335 15.9688 85.2556 14.038 85.9945 11.6307C86.2569 10.7905 86.4233 9.8966 86.4233 8.9611C86.4233 4.00979 82.3833 0 77.444 0C74.6374 0 72.1531 1.31668 70.5082 3.34882C69.2573 4.88557 68.4821 6.82851 68.4821 8.96187C68.4821 9.90344 68.6311 10.8208 68.8935 11.6609C69.6437 14.0378 71.3604 15.9679 73.571 17.0351C73.571 17.0351 73.571 17.0351 73.571 17.0351V17.0351Z" fill="url(#paint1_linear_1007_3)"/>
<path fill-rule="evenodd" clip-rule="evenodd" d="M86.773 22.4585L77.4422 22.4351H67.9736C62.5813 22.4351 58.1125 26.2543 56.9206 31.3909C56.7179 32.2546 56.5931 33.1364 56.5931 34.0486V34.162V36.5522C56.5931 39.8161 59.2391 42.4621 62.5031 42.462L92.3825 42.4615C95.6463 42.4614 98.2922 39.8155 98.2922 36.5516V34.3343V34.0485C98.1553 28.1487 93.6025 22.4586 86.7741 22.4586L86.773 22.4585Z" fill="url(#paint2_linear_1007_3)"/>
<defs>
<linearGradient id="paint0_linear_1007_3" x1="49.4505" y1="48.5566" x2="49.4505" y2="93.1559" gradientUnits="userSpaceOnUse">
<stop stop-color="#76ADE3"/>
<stop offset="1" stop-color="#9CC7F4"/>
</linearGradient>
<linearGradient id="paint1_linear_1007_3" x1="77.4527" y1="0" x2="77.4527" y2="17.9238" gradientUnits="userSpaceOnUse">
<stop stop-color="#76ADE3"/>
<stop offset="1" stop-color="#9CC7F4"/>
</linearGradient>
<linearGradient id="paint2_linear_1007_3" x1="77.4427" y1="22.4351" x2="77.4427" y2="42.4621" gradientUnits="userSpaceOnUse">
<stop stop-color="#76ADE3"/>
<stop offset="1" stop-color="#9CC7F4"/>
</linearGradient>
</defs>
</svg>
