<svg width="43" height="38" viewBox="0 0 43 38" fill="none" xmlns="http://www.w3.org/2000/svg">
<path d="M8.51613 0.577148H6.00642C2.74249 0.577148 0.0965576 3.22308 0.0965576 6.48701V25.1565C0.0965576 28.4204 2.74249 31.0664 6.00642 31.0664H37.0629C40.3268 31.0664 42.9727 28.4204 42.9727 25.1565V6.48701C42.9727 3.22309 40.3268 0.577148 37.0629 0.577148H8.51613Z" fill="#FF4D00"/>
<path d="M14.3669 35.7395C14.3669 34.7917 15.1352 34.0234 16.083 34.0234H26.9929C27.9406 34.0234 28.7089 34.7917 28.7089 35.7395V35.7395C28.7089 36.6872 27.9406 37.4555 26.9929 37.4555H16.083C15.1352 37.4555 14.3669 36.6872 14.3669 35.7395V35.7395Z" fill="#FF4D00"/>
</svg>
