<svg width="105" height="104" viewBox="0 0 105 104" fill="none" xmlns="http://www.w3.org/2000/svg">
<path d="M104.301 23.3465L95.118 3.99613C94.0245 1.59102 91.6193 0.169434 88.9961 0.169434H38.161C35.537 0.169434 33.2416 1.69992 32.148 3.99613L22.9651 23.2368C21.8715 25.751 23.6209 28.4841 26.3539 28.4841L30.8363 28.4848V43.3527H65.4917C68.7716 43.3527 71.8324 44.8832 73.9098 47.3975C75.9871 50.0214 76.6428 53.3005 75.8772 56.5804L71.7235 73.7445H90.9641C94.0252 73.7445 96.4303 71.2303 96.4303 68.2784V28.5942H100.913C103.646 28.5942 105.395 25.752 104.302 23.3468L104.301 23.3465Z" fill="url(#paint0_linear_813_936)"/>
<path d="M65.4913 50.6774H18.9197L17.2802 44.0087C16.8432 42.4782 15.5308 41.3848 13.8914 41.3848H4.27076C2.30333 41.3848 0.772034 42.9152 0.772034 44.8835C0.772034 46.8509 2.30251 48.3822 4.27076 48.3822L11.1575 48.3815L19.7936 82.8182C20.2306 84.3487 21.543 85.4421 23.1824 85.4421H58.8217C60.4613 85.4421 61.7736 84.3486 62.2105 82.8182L68.8792 55.1595C69.0981 54.1757 68.8792 52.9732 68.2234 52.2076C67.5684 51.1148 66.5846 50.6778 65.4911 50.6778L65.4913 50.6774Z" fill="#FF4D00"/>
<path d="M33.2346 97.0962C33.2346 100.593 30.3985 103.429 26.9013 103.429C23.4034 103.429 20.5673 100.593 20.5673 97.0962C20.5673 93.5983 23.4034 90.7622 26.9013 90.7622C30.3985 90.7622 33.2346 93.5983 33.2346 97.0962Z" fill="#FF4D00"/>
<path d="M58.569 97.0962C58.569 100.593 55.7329 103.429 52.2358 103.429C48.7378 103.429 45.9017 100.593 45.9017 97.0962C45.9017 93.5983 48.7378 90.7622 52.2358 90.7622C55.7329 90.7622 58.569 93.5983 58.569 97.0962Z" fill="#FF4D00"/>
<defs>
<linearGradient id="paint0_linear_813_936" x1="63.6333" y1="0.169434" x2="63.6333" y2="73.7445" gradientUnits="userSpaceOnUse">
<stop stop-color="#73AAE1"/>
<stop offset="1" stop-color="#A0CBF6"/>
</linearGradient>
</defs>
</svg>
