<svg width="102" height="102" viewBox="0 0 102 102" fill="none" xmlns="http://www.w3.org/2000/svg">
<path d="M53.7961 54.2711V101.812H101.337V54.2711H53.7961ZM86.4802 72.0988H68.6525C67.0117 72.0988 65.6812 70.7683 65.6812 69.1275C65.6812 67.4867 67.0117 66.1562 68.6525 66.1562H86.4802C88.121 66.1562 89.4514 67.4867 89.4514 69.1275C89.4514 70.7683 88.121 72.0988 86.4802 72.0988ZM0.31308 54.2711V101.812H47.8535V54.2711H0.31308ZM32.9971 72.0988H15.1695C13.5286 72.0988 12.1982 70.7683 12.1982 69.1275C12.1982 67.4867 13.5286 66.1562 15.1695 66.1562H32.9971C34.638 66.1562 35.9684 67.4867 35.9684 69.1275C35.9684 70.7683 34.638 72.0988 32.9971 72.0988ZM27.0546 0.788086V48.3285H74.595V0.788086H27.0546ZM59.7387 18.6158H41.911C40.2702 18.6158 38.9397 17.2853 38.9397 15.6445C38.9397 14.0037 40.2702 12.6732 41.911 12.6732H59.7387C61.3795 12.6732 62.7099 14.0037 62.7099 15.6445C62.7099 17.2853 61.3795 18.6158 59.7387 18.6158Z" fill="url(#paint0_linear_813_946)"/>
<defs>
<linearGradient id="paint0_linear_813_946" x1="50.8248" y1="0.788086" x2="50.8248" y2="101.812" gradientUnits="userSpaceOnUse">
<stop stop-color="#75ACE2"/>
<stop offset="1" stop-color="#9EC9F5"/>
</linearGradient>
</defs>
</svg>
