<svg width="99" height="94" viewBox="0 0 99 94" fill="none" xmlns="http://www.w3.org/2000/svg">
<path d="M0.608307 54.4665C0.608307 51.2026 3.25424 48.5566 6.51817 48.5566H92.3828C95.6467 48.5566 98.2927 51.2026 98.2927 54.4665V87.2461C98.2927 90.51 95.6467 93.1559 92.3828 93.1559H6.51817C3.25424 93.1559 0.608307 90.51 0.608307 87.2461V54.4665Z" fill="url(#paint0_linear_813_954)"/>
<path d="M9.51613 5.57715H7.00642C3.74249 5.57715 1.09656 8.22308 1.09656 11.487V30.1565C1.09656 33.4204 3.74249 36.0664 7.00642 36.0664H38.0629C41.3268 36.0664 43.9727 33.4204 43.9727 30.1565V11.487C43.9727 8.22309 41.3268 5.57715 38.0629 5.57715H9.51613Z" fill="#FF4D00"/>
<path d="M15.3669 40.7395C15.3669 39.7917 16.1352 39.0234 17.083 39.0234H27.9929C28.9406 39.0234 29.7089 39.7917 29.7089 40.7395C29.7089 41.6872 28.9406 42.4555 27.9929 42.4555H17.083C16.1352 42.4555 15.3669 41.6872 15.3669 40.7395Z" fill="#FF4D00"/>
<path fill-rule="evenodd" clip-rule="evenodd" d="M73.571 17.3159C73.571 17.3159 73.571 17.316 73.571 17.316C74.2864 17.6737 75.0662 17.9179 75.8716 18.0669C76.3897 18.1622 76.9085 18.2046 77.4447 18.2046H77.4863C78.0104 18.2046 78.4989 18.1509 78.9814 18.0669C79.7974 17.9293 80.584 17.6737 81.2995 17.328C83.5335 16.2496 85.2556 14.3188 85.9945 11.9115C86.2569 11.0713 86.4233 10.1774 86.4233 9.24186C86.4233 4.29055 82.3833 0.280762 77.444 0.280762C74.6374 0.280762 72.1531 1.59744 70.5082 3.62958C69.2573 5.16634 68.4821 7.10928 68.4821 9.24263C68.4821 10.1842 68.6311 11.1016 68.8935 11.9417C69.6437 14.3186 71.3604 16.2487 73.571 17.3158C73.571 17.3158 73.571 17.3159 73.571 17.3159Z" fill="url(#paint1_linear_813_954)"/>
<path fill-rule="evenodd" clip-rule="evenodd" d="M86.773 22.4585L77.4422 22.4351H67.9736C62.5813 22.4351 58.1125 26.2543 56.9206 31.3909C56.7179 32.2546 56.5931 33.1364 56.5931 34.0486V34.162V36.5522C56.5931 39.8161 59.2391 42.4621 62.5031 42.462L92.3825 42.4615C95.6463 42.4614 98.2922 39.8155 98.2922 36.5516V34.3343V34.0485C98.1553 28.1487 93.6025 22.4586 86.7741 22.4586L86.773 22.4585Z" fill="url(#paint2_linear_813_954)"/>
<defs>
<linearGradient id="paint0_linear_813_954" x1="49.4505" y1="48.5566" x2="49.4505" y2="93.1559" gradientUnits="userSpaceOnUse">
<stop stop-color="#76ADE3"/>
<stop offset="1" stop-color="#9CC7F4"/>
</linearGradient>
<linearGradient id="paint1_linear_813_954" x1="77.4527" y1="0.280762" x2="77.4527" y2="18.2046" gradientUnits="userSpaceOnUse">
<stop stop-color="#76ADE3"/>
<stop offset="1" stop-color="#9CC7F4"/>
</linearGradient>
<linearGradient id="paint2_linear_813_954" x1="77.4427" y1="22.4351" x2="77.4427" y2="42.4621" gradientUnits="userSpaceOnUse">
<stop stop-color="#76ADE3"/>
<stop offset="1" stop-color="#9CC7F4"/>
</linearGradient>
</defs>
</svg>
