<svg xmlns="http://www.w3.org/2000/svg" xmlns:xlink="http://www.w3.org/1999/xlink" fill="none" width="400" height="1030">
<path fill-rule="evenodd" clip-rule="evenodd" d="M398 525.938C398 523.098 396.863 520.377 394.843 518.382L-111.917 17.8602C-118.626 11.2338 -130 15.9863 -130 25.4161L-130 517.062C-130 519.902 -128.863 522.623 -126.843 524.618L379.917 1025.14C386.626 1031.77 398 1027.01 398 1017.58V525.938Z" fill="#6FA7DE"/>
<path fill-rule="evenodd" clip-rule="evenodd" d="M275 795.948C275 793.103 273.858 790.376 271.83 788.38L133.07 651.788C126.356 645.179 115 649.935 115 659.356L115 787.052C115 789.897 116.142 792.624 118.17 794.62L256.93 931.212C263.644 937.821 275 933.065 275 923.644V795.948Z" fill="white"/>
<path fill-rule="evenodd" clip-rule="evenodd" d="M435 793.948C435 791.103 433.858 788.376 431.83 786.38L293.07 649.788C286.356 643.179 275 647.935 275 657.356L275 785.052C275 787.897 276.142 790.624 278.17 792.62L416.93 929.212C423.644 935.821 435 931.065 435 921.644V793.948Z" fill="white"/>
</svg>