<svg width="86" height="238" viewBox="0 0 86 238" fill="none" xmlns="http://www.w3.org/2000/svg">
<path opacity="0.38" d="M43.0908 170.023C55.7052 170.023 66.1414 160.206 66.9128 147.615L77.7732 -29.6308C78.9979 -49.6196 63.1171 -66.5033 43.0908 -66.5033C23.0645 -66.5033 7.18364 -49.6195 8.40841 -29.6308L19.2687 147.615C20.0402 160.206 30.4764 170.023 43.0908 170.023ZM6.49666 228.336C6.49666 248.071 22.4946 264.069 42.2292 264.069H43.9524C63.6869 264.069 79.6849 248.071 79.6849 228.336C79.6849 208.602 63.687 192.604 43.9524 192.604H42.2292C22.4947 192.604 6.49666 208.602 6.49666 228.336Z" fill="white" stroke="white" stroke-width="11.0067"/>
</svg>
