<svg width="86" height="278" viewBox="0 0 86 278" fill="none" xmlns="http://www.w3.org/2000/svg">
<path opacity="0.38" d="M43.0908 183.846C55.7052 183.846 66.1414 174.029 66.9128 161.438L77.7732 -15.8078C78.9979 -35.7966 63.1171 -52.6803 43.0908 -52.6803C23.0645 -52.6803 7.18364 -35.7965 8.40841 -15.8078L19.2687 161.438C20.0402 174.029 30.4764 183.846 43.0908 183.846ZM6.49666 242.159C6.49666 261.894 22.4946 277.892 42.2292 277.892H43.9524C63.6869 277.892 79.6849 261.894 79.6849 242.159C79.6849 222.425 63.687 206.427 43.9524 206.427H42.2292C22.4947 206.427 6.49666 222.425 6.49666 242.159Z" fill="#619CDA" stroke="#619CDA" stroke-width="11.0067"/>
</svg>
