<svg width="148" height="162" viewBox="0 0 148 162" fill="none" xmlns="http://www.w3.org/2000/svg">
<path opacity="0.15" fill-rule="evenodd" clip-rule="evenodd" d="M63.4635 60.4443L2.50802 0.426601C1.57625 -0.490827 0 0.169246 0 1.47686L9.49384e-06 80.231C9.54144e-06 80.6258 0.15845 81.0042 0.439818 81.2812L81.6782 161.27C82.61 162.187 84.1862 161.527 84.1862 160.22V101.252L145.142 161.27C146.073 162.187 147.65 161.527 147.65 160.22V81.4655C147.65 81.0706 147.491 80.6923 147.21 80.4152L65.9715 0.426601C65.0397 -0.490827 63.4635 0.169246 63.4635 1.47686L63.4635 60.4443Z" fill="#65B2FF"/>
<path fill-rule="evenodd" clip-rule="evenodd" d="M137.722 113.331C132.919 117.026 124.305 119.488 114.476 119.488C104.647 119.488 96.0321 117.026 91.2293 113.331C88.669 115.301 87.192 117.62 87.192 120.103C87.192 127.243 99.4074 133.032 114.476 133.032C129.544 133.032 141.76 127.243 141.76 120.103C141.76 117.62 140.283 115.301 137.722 113.331Z" fill="#FF4D00"/>
<path fill-rule="evenodd" clip-rule="evenodd" d="M137.722 130.71C132.919 134.405 124.305 136.868 114.476 136.868C104.647 136.868 96.0321 134.405 91.2293 130.71C88.669 132.68 87.192 134.999 87.192 137.482C87.192 144.622 99.4074 150.411 114.476 150.411C129.544 150.411 141.76 144.622 141.76 137.482C141.76 134.999 140.283 132.68 137.722 130.71Z" fill="#FF4D00"/>
<ellipse cx="114.476" cy="102.725" rx="27.2838" ry="12.9287" fill="#FF4D00"/>
<mask id="mask0_1004_3" style="mask-type:alpha" maskUnits="userSpaceOnUse" x="17" y="6" width="92" height="107">
<path d="M17 6V112.938H75.1711C79.5118 112.938 83.0306 109.42 83.0306 105.079V86.174C83.0306 82.7015 85.8457 79.8864 89.3182 79.8864H97.6952C103.896 79.8864 108.923 74.8595 108.923 68.6585V6H17Z" fill="#D9D9D9"/>
</mask>
<g mask="url(#mask0_1004_3)">
<path fill-rule="evenodd" clip-rule="evenodd" d="M63.4803 60.7687C65.2349 61.6668 67.1472 62.2804 69.1225 62.6544C70.393 62.8937 71.6654 63 72.9804 63H73.0824C74.3677 63 75.5659 62.8652 76.7492 62.6544C78.7505 62.3089 80.6794 61.6671 82.4342 60.7994C87.913 58.0918 92.1365 53.2443 93.9484 47.2005C94.592 45.091 95 42.8467 95 40.498C95 28.0671 85.0921 18 72.9786 18C66.0957 18 60.0029 21.3057 55.9689 26.4076C52.9012 30.2659 51 35.1439 51 40.4999C51 42.8638 51.3654 45.167 52.009 47.2763C53.8489 53.2438 58.059 58.0894 63.4803 60.7687Z" fill="url(#paint0_linear_1004_3)"/>
<path fill-rule="evenodd" clip-rule="evenodd" d="M96.2705 72.0585L72.9987 72H49.3836C35.9348 72 24.7893 81.5353 21.8167 94.3594C21.3112 96.5156 21 98.7172 21 100.995V116.09C21 119.354 23.646 122 26.91 122L119.09 121.998C122.354 121.998 125 119.352 125 116.088V100.994C124.659 86.2647 113.303 72.0587 96.2732 72.0587L96.2705 72.0585Z" fill="url(#paint1_linear_1004_3)"/>
</g>
<defs>
<linearGradient id="paint0_linear_1004_3" x1="73" y1="72" x2="73" y2="122" gradientUnits="userSpaceOnUse">
<stop stop-color="#76ADE3"/>
<stop offset="1" stop-color="#9CC7F4"/>
</linearGradient>
<linearGradient id="paint1_linear_1004_3" x1="73" y1="72" x2="73" y2="122" gradientUnits="userSpaceOnUse">
<stop stop-color="#76ADE3"/>
<stop offset="1" stop-color="#9CC7F4"/>
</linearGradient>
</defs>
</svg>
