<svg width="30" height="37" viewBox="0 0 30 37" fill="none" xmlns="http://www.w3.org/2000/svg">
<path opacity="0.28" d="M29.3672 0H0.63279C0.287632 0 0 0.264338 0 0.616789V29.7821C0 30.0171 0.143816 30.252 0.345158 30.3401L14.209 36.8017C14.698 37.0661 15.3308 37.0661 15.8197 36.8017L29.6836 30.3401C29.8849 30.2227 30 30.0171 30 29.7821L29.9712 18.3274H22.0326L22.0614 24.2016C22.0614 24.3485 21.9751 24.466 21.86 24.5247L15.5034 27.4618C15.187 27.638 14.813 27.638 14.4966 27.4618L8.25503 24.5247C8.13998 24.466 8.05369 24.3485 8.05369 24.2016V8.69379C8.05369 8.45882 8.25503 8.25322 8.48514 8.25322H21.6874C21.9175 8.25322 22.1189 8.45882 22.1189 8.69379V13.1288H30V0.616789C30 0.264338 29.7124 0 29.3672 0Z" fill="white"/>
</svg>
