<svg width="92" height="84" viewBox="0 0 92 84" fill="none" xmlns="http://www.w3.org/2000/svg">
<path d="M42.871 34.247L78.686 58.8674C80.1529 59.8758 80.5221 61.8689 79.5137 63.3358L78.3875 64.9741C77.3791 66.441 75.386 66.8102 73.9191 65.8018L38.1041 41.1814L42.871 34.247Z" fill="#FF4D00"/>
<path d="M55.1123 25.0142L52.4801 28.8431C51.6289 30.0814 50.1586 30.6696 48.7573 30.4636C47.9703 30.3434 47.1703 30.6911 46.7119 31.3579L36.563 46.1214C36.1046 46.7881 36.0666 47.6596 36.4607 48.3514C37.1548 49.5859 37.1323 51.1694 36.2811 52.4077L33.6489 56.2366C32.4573 57.9701 30.0464 58.4166 28.3129 57.225L3.68207 40.2929C1.94856 39.1012 1.50203 36.6904 2.69368 34.9569L5.3258 31.128C6.15081 29.9278 7.55682 29.3516 8.89507 29.486C9.82967 29.5955 10.7404 29.1275 11.2773 28.3465L21.0465 14.1354C21.5834 13.3544 21.6941 12.3365 21.2571 11.5031C20.6332 10.2888 20.6867 8.78269 21.5117 7.58251L24.1439 3.7536C25.3355 2.02009 27.7464 1.57355 29.4799 2.7652L54.1107 19.6973C55.8632 20.902 56.3039 23.2808 55.1122 25.0143L55.1123 25.0142Z" fill="#FF4D00"/>
<path d="M13.5806 24.295C14.5903 24.9891 16.0047 24.7271 16.6988 23.7174L18.1787 21.5647C18.8728 20.555 18.6108 19.1406 17.6011 18.4465C16.5914 17.7524 15.177 18.0144 14.4829 19.0241L13.003 21.1768C12.3149 22.2186 12.5709 23.6009 13.5806 24.295Z" fill="#FF4D00"/>
</svg>
