<svg width="170" height="166" viewBox="0 0 170 166" fill="none" xmlns="http://www.w3.org/2000/svg">
<path opacity="0.15" fill-rule="evenodd" clip-rule="evenodd" d="M63.4635 64.4443L2.50802 4.4266C1.57625 3.50917 0 4.16925 0 5.47686L9.49384e-06 84.231C9.54144e-06 84.6258 0.15845 85.0042 0.439818 85.2812L81.6782 165.27C82.61 166.187 84.1862 165.527 84.1862 164.22V105.252L145.142 165.27C146.073 166.187 147.65 165.527 147.65 164.22V85.4655C147.65 85.0706 147.491 84.6923 147.21 84.4152L65.9715 4.4266C65.0397 3.50917 63.4635 4.16925 63.4635 5.47686L63.4635 64.4443Z" fill="#65B2FF"/>
<path d="M65.989 143.125H109.705C111.23 143.125 112.479 144.374 112.479 145.9V148.974C112.479 150.5 111.23 151.748 109.705 151.748H65.989C64.4632 151.748 63.2149 150.5 63.2149 148.974V145.9C63.2149 144.374 64.4632 143.125 65.989 143.125Z" fill="#FF4D00"/>
<path d="M120.871 115.247L156.686 139.868C158.153 140.876 158.522 142.869 157.514 144.336L156.387 145.975C155.379 147.441 153.386 147.811 151.919 146.802L116.104 122.182L120.871 115.247Z" fill="#FF4D00"/>
<path d="M133.112 106.015L130.48 109.844C129.629 111.082 128.159 111.67 126.757 111.464C125.97 111.344 125.17 111.692 124.712 112.358L114.563 127.122C114.105 127.789 114.067 128.66 114.461 129.352C115.155 130.586 115.132 132.17 114.281 133.408L111.649 137.237C110.457 138.971 108.046 139.417 106.313 138.225L81.682 121.293C79.9485 120.102 79.502 117.691 80.6936 115.957L83.3258 112.128C84.1508 110.928 85.5568 110.352 86.895 110.486C87.8296 110.596 88.7404 110.128 89.2773 109.347L99.0465 95.1359C99.5834 94.3549 99.694 93.3369 99.2571 92.5036C98.6331 91.2892 98.6867 89.7832 99.5117 88.583L102.144 84.7541C103.335 83.0206 105.746 82.574 107.48 83.7657L132.111 100.698C133.863 101.902 134.304 104.281 133.112 106.015L133.112 106.015Z" fill="#FF4D00"/>
<path d="M91.5806 105.295C92.5903 105.99 94.0047 105.728 94.6988 104.718L96.1786 102.565C96.8727 101.556 96.6107 100.141 95.601 99.447C94.5914 98.7529 93.1769 99.0149 92.4828 100.025L91.003 102.177C90.3149 103.219 90.5709 104.601 91.5806 105.295Z" fill="#FF4D00"/>
<mask id="mask0_1004_5" style="mask-type:alpha" maskUnits="userSpaceOnUse" x="16" y="0" width="92" height="107">
<path d="M16 0V106.938H74.1711C78.5118 106.938 82.0306 103.42 82.0306 99.0789V80.174C82.0306 76.7015 84.8457 73.8864 88.3182 73.8864H96.6952C102.896 73.8864 107.923 68.8595 107.923 62.6585V0H16Z" fill="#D9D9D9"/>
</mask>
<g mask="url(#mask0_1004_5)">
<path fill-rule="evenodd" clip-rule="evenodd" d="M62.4803 54.7687C64.2349 55.6668 66.1472 56.2804 68.1225 56.6544C69.393 56.8937 70.6654 57 71.9804 57H72.0824C73.3677 57 74.5659 56.8652 75.7492 56.6544C77.7505 56.3089 79.6794 55.6671 81.4342 54.7994C86.913 52.0918 91.1365 47.2443 92.9484 41.2005C93.592 39.091 94 36.8467 94 34.498C94 22.0671 84.0921 12 71.9786 12C65.0957 12 59.0029 15.3057 54.9689 20.4076C51.9012 24.2659 50 29.1439 50 34.4999C50 36.8638 50.3654 39.167 51.009 41.2763C52.8489 47.2438 57.059 52.0894 62.4803 54.7687Z" fill="url(#paint0_linear_1004_5)"/>
<path fill-rule="evenodd" clip-rule="evenodd" d="M95.2705 66.0585L71.9987 66H48.3836C34.9348 66 23.7893 75.5353 20.8167 88.3594C20.3112 90.5156 20 92.7172 20 94.9945V110.09C20 113.354 22.646 116 25.91 116L118.09 115.998C121.354 115.998 124 113.352 124 110.088V94.9942C123.659 80.2647 112.303 66.0587 95.2732 66.0587L95.2705 66.0585Z" fill="url(#paint1_linear_1004_5)"/>
</g>
<defs>
<linearGradient id="paint0_linear_1004_5" x1="72" y1="66" x2="72" y2="116" gradientUnits="userSpaceOnUse">
<stop stop-color="#76ADE3"/>
<stop offset="1" stop-color="#9CC7F4"/>
</linearGradient>
<linearGradient id="paint1_linear_1004_5" x1="72" y1="66" x2="72" y2="116" gradientUnits="userSpaceOnUse">
<stop stop-color="#76ADE3"/>
<stop offset="1" stop-color="#9CC7F4"/>
</linearGradient>
</defs>
</svg>
