<svg width="321" height="551" viewBox="0 0 321 551" fill="none" xmlns="http://www.w3.org/2000/svg">
<path d="M318.975 195.214C321.08 192.837 321.592 189.42 320.284 186.515C318.975 183.609 316.067 181.745 312.887 181.745H205.522C203.829 181.745 202.264 180.821 201.434 179.335C200.604 177.849 200.654 176.029 201.562 174.593L296.807 21.7006C299.536 17.3261 299.681 11.8051 297.158 7.30754C294.651 2.79385 289.889 0 284.731 0H154.959C149.64 0 144.755 2.9832 142.31 7.70832L0.602083 283.402C-0.261244 285.078 -0.194395 287.103 0.791457 288.734C1.7996 290.359 3.5541 291.35 5.45337 291.35H94.086C96.7873 291.35 99.3106 292.691 100.826 294.94C102.329 297.171 102.63 300.015 101.605 302.52L2.06617 547.553C1.60387 548.688 2.03275 549.996 3.07431 550.63C4.11029 551.271 5.46936 551.059 6.28253 550.152L318.975 195.214Z" fill="url(#paint0_linear_813_817)"/>
<defs>
<linearGradient id="paint0_linear_813_817" x1="160.5" y1="0" x2="160.5" y2="551" gradientUnits="userSpaceOnUse">
<stop stop-color="#3A87D3"/>
<stop offset="1" stop-color="#9ECAF5"/>
</linearGradient>
</defs>
</svg>
