<svg width="29" height="27" viewBox="0 0 29 27" fill="none" xmlns="http://www.w3.org/2000/svg">
<path fill-rule="evenodd" clip-rule="evenodd" d="M13.9778 0.380234C12.6255 -0.580047 10.7531 0.38682 10.7531 2.04538V4.82628L13.5144 6.60141L13.5144 3.43788L25.6043 12.0232V23.2317L17.8328 17.713L18.5254 21.5916L25.1409 26.2894C26.4932 27.2497 28.3656 26.2828 28.3656 24.6242V11.6519C28.3656 10.9904 28.0452 10.3698 27.5058 9.98677L13.9778 0.380234Z" fill="#3D3C3C"/>
<path d="M10.8071 17.1974C10.6651 17.323 10.5838 17.5034 10.5838 17.693V19.3488C10.5838 19.9189 11.2568 20.2221 11.6838 19.8444L17.2829 14.892C17.5677 14.6401 17.5821 14.2005 17.3143 13.9306L11.7152 8.28484C11.2992 7.86538 10.5838 8.15997 10.5838 8.75073V10.7731C10.5838 10.9477 10.6528 11.1151 10.7757 11.239L13.445 13.9306C13.7127 14.2005 13.6984 14.6401 13.4136 14.892L10.8071 17.1974Z" fill="#3D3C3C"/>
<path d="M3.29953 15.9158C3.10203 15.9158 2.91486 15.8276 2.78917 15.6753L1.53962 14.1606C1.18361 13.7291 1.49056 13.078 2.04997 13.078H13.5353C13.9007 13.078 14.1969 13.3742 14.1969 13.7396V15.2542C14.1969 15.6196 13.9007 15.9158 13.5353 15.9158H3.29953Z" fill="#3D3C3C"/>
</svg>
