<svg width="40" height="24" viewBox="0 0 40 24" fill="none" xmlns="http://www.w3.org/2000/svg">
<path d="M20.9995 20.5904C18.7571 22.863 15.8178 23.9994 12.1815 23.9994C8.54523 23.9994 5.60592 22.863 3.36355 20.5904C1.12118 18.3177 0 15.4541 0 11.9997C0 8.57553 1.12118 5.72712 3.36355 3.45446C5.60592 1.15149 8.54523 0 12.1815 0C15.8178 0 18.7571 1.15149 20.9995 3.45446C23.2418 5.72712 24.363 8.57553 24.363 11.9997C24.363 15.4541 23.2418 18.3177 20.9995 20.5904ZM12.1815 18.045C13.939 18.045 15.3784 17.4692 16.4996 16.3178C17.6511 15.136 18.2268 13.6966 18.2268 11.9997C18.2268 10.2725 17.6662 8.83311 16.545 7.68162C15.4238 6.49983 13.9693 5.90894 12.1815 5.90894C10.3937 5.90894 8.93916 6.49983 7.81798 7.68162C6.6968 8.83311 6.13621 10.2725 6.13621 11.9997C6.13621 13.7269 6.6968 15.1663 7.81798 16.3178C8.93916 17.4692 10.3937 18.045 12.1815 18.045Z" fill="black"/>
<path fill-rule="evenodd" clip-rule="evenodd" d="M39.2188 12.1864C39.2188 12.0671 39.171 11.9529 39.0861 11.8691L27.8181 0.748862C27.5365 0.470926 27.0593 0.670428 27.0593 1.06611L27.0593 11.8136C27.0593 11.9329 27.1071 12.0471 27.192 12.1309L38.46 23.2511C38.7416 23.5291 39.2188 23.3296 39.2188 22.9339V12.1864Z" fill="black"/>
</svg>
