<svg width="89" height="24" viewBox="0 0 89 24" fill="none" xmlns="http://www.w3.org/2000/svg">
<path fill-rule="evenodd" clip-rule="evenodd" d="M0.149536 1.0661C0.149536 0.670422 0.626716 0.470919 0.908346 0.748853L12.1764 11.8691C12.2613 11.9528 12.3091 12.0671 12.3091 12.1863V22.9339C12.3091 23.3296 11.8319 23.5291 11.5503 23.2511L0.282174 12.1309C0.197308 12.0472 0.149536 11.9329 0.149536 11.8137V1.0661Z" fill="black"/>
<path d="M80.5596 11.5571C80.4476 11.7123 80.449 11.9221 80.5631 12.0757L88.3962 22.617C88.6113 22.9065 88.4047 23.3174 88.044 23.3174H81.2802C81.1378 23.3174 81.0043 23.2483 80.9221 23.1321L76.6894 17.1494C76.5131 16.9002 76.1426 16.9028 75.9697 17.1544L71.866 23.1271C71.7841 23.2463 71.6489 23.3174 71.5044 23.3174H64.887C64.5252 23.3174 64.3189 22.9042 64.5364 22.615L72.3554 12.2174C72.4727 12.0614 72.4728 11.8467 72.3557 11.6905L64.6255 1.38358C64.4086 1.09436 64.615 0.681641 64.9765 0.681641H71.7333C71.8769 0.681641 72.0114 0.751899 72.0934 0.869749L76.2788 6.88364C76.4548 7.13656 76.8299 7.13398 77.0024 6.87865L81.0591 0.874737C81.1407 0.753995 81.2769 0.681641 81.4226 0.681641H87.5585C87.9164 0.681641 88.1237 1.08714 87.9141 1.37727L80.5596 11.5571Z" fill="black"/>
<path d="M52.497 0C56.2545 0 59.2241 1.3333 61.4059 3.9999C63.5163 6.57927 64.4075 9.79658 64.0796 13.6518C64.0606 13.8755 63.8717 14.0451 63.6472 14.0451H47.4611C47.1929 14.0451 46.986 14.2844 47.0515 14.5445C47.3028 15.5427 47.8453 16.4065 48.6789 17.1359C49.6789 17.9541 50.9364 18.3935 52.4516 18.4541C53.5121 18.5147 54.497 18.3329 55.406 17.9086C56.2467 17.5019 56.869 16.9859 57.2728 16.3607C57.3601 16.2254 57.5063 16.1359 57.6673 16.1359H63.2294C63.522 16.1359 63.7326 16.4174 63.6372 16.694C62.8715 18.9129 61.5369 20.6662 59.6332 21.954C57.5726 23.3176 55.1788 23.9994 52.4516 23.9994C48.785 23.9994 45.9063 22.8479 43.8154 20.5449C41.7246 18.2117 40.6791 15.3632 40.6791 11.9997C40.6791 8.60584 41.7852 5.75743 43.9972 3.45446C46.2396 1.15148 49.0729 0 52.497 0ZM55.8606 6.49983C54.9212 5.83318 53.7849 5.49986 52.4516 5.49986C51.1183 5.49986 49.9516 5.84833 48.9516 6.54528C48.1423 7.10172 47.5546 7.82705 47.1886 8.72126C47.0779 8.9916 47.2888 9.27249 47.5809 9.27249H57.2355C57.5263 9.27249 57.7371 8.99387 57.63 8.72347C57.2644 7.80072 56.6746 7.05951 55.8606 6.49983Z" fill="black"/>
<path d="M28.6762 0.0454102C31.464 0.0454102 33.6609 0.939327 35.2669 2.72716C36.8729 4.51499 37.6759 7.01493 37.6759 10.227V22.8788C37.6759 23.1211 37.4795 23.3175 37.2372 23.3175H31.9784C31.7361 23.3175 31.5397 23.1211 31.5397 22.8788V11.136C31.5397 9.56032 31.1003 8.31792 30.2216 7.40886C29.3428 6.49979 28.2368 6.04526 26.9035 6.04526C25.4793 6.04526 24.2672 6.56039 23.2672 7.59067C22.2672 8.59064 21.7672 9.92394 21.7672 11.5906V22.8788C21.7672 23.1211 21.5708 23.3175 21.3285 23.3175H16.0698C15.8275 23.3175 15.631 23.1211 15.631 22.8788V1.12047C15.631 0.878177 15.8275 0.681759 16.0698 0.681759H21.1467C21.389 0.681759 21.5854 0.878177 21.5854 1.12047V3.25883C21.5854 3.34175 21.6526 3.40896 21.7356 3.40896C21.784 3.40896 21.8295 3.38531 21.8581 3.34618C23.4617 1.14567 25.7344 0.0454102 28.6762 0.0454102Z" fill="black"/>
</svg>
