<svg width="96" height="39" viewBox="0 0 96 39" fill="none" xmlns="http://www.w3.org/2000/svg">
<path d="M30.3446 1.43473H0.648638C0.291055 1.43473 0 1.72484 0 2.08127V31.5236C0 31.764 0.133054 31.9878 0.349266 32.0956L14.6692 38.6107C15.1848 38.8925 15.8168 38.8925 16.3324 38.6107L30.6523 32.0956C30.8602 31.9795 30.9932 31.764 30.9932 31.5236L30.9683 19.9688H22.7855L22.8104 25.8788C22.8104 26.0198 22.7273 26.1524 22.5942 26.2104L16.0247 29.1696C15.7004 29.3519 15.3095 29.3519 14.9935 29.1696L8.5404 26.2187C8.40734 26.1607 8.32419 26.0281 8.32419 25.8871V10.221C8.32419 9.98064 8.52377 9.7817 8.76493 9.7817H22.403C22.6441 9.7817 22.8437 9.98064 22.8437 10.221V14.6805H31.0016V2.07298C30.9932 1.72484 30.7022 1.43473 30.3446 1.43473Z" fill="black"/>
<path d="M46.0882 1.52791C47.2704 1.5095 48.4525 1.80408 49.4685 2.39325C50.4474 2.96401 51.2602 3.77412 51.8143 4.74993L49.7825 6.16762C49.3946 5.52322 48.8589 4.97087 48.2124 4.56582C47.5659 4.17917 46.8271 3.97665 46.0513 3.99506C45.4787 3.99506 44.9245 4.08711 44.3888 4.30805C43.8901 4.51058 43.4468 4.80517 43.0774 5.19181C42.708 5.57845 42.4124 6.03874 42.2092 6.53585C41.9876 7.0882 41.8952 7.67737 41.8952 8.26654C41.8952 8.85571 41.9876 9.42647 42.2092 9.97882C42.4124 10.4759 42.708 10.9362 43.0774 11.3229C43.4468 11.6911 43.9086 11.9857 44.3888 12.1882C44.9245 12.4091 45.4787 12.5012 46.0513 12.5012C46.8086 12.5196 47.5474 12.3171 48.2124 11.9304C48.8589 11.5254 49.3761 10.973 49.7825 10.3286L51.8143 11.7463C51.2602 12.7221 50.4474 13.5322 49.4685 14.103C48.4341 14.6922 47.2704 14.9868 46.0882 14.9684C45.1646 14.9684 44.2411 14.8026 43.3729 14.4528C42.5602 14.1214 41.8213 13.6427 41.1933 13.0351C40.5653 12.4276 40.0666 11.7095 39.7341 10.9178C39.0137 9.22394 39.0137 7.30914 39.7341 5.61527C40.085 4.82358 40.5837 4.10553 41.1933 3.49794C41.8213 2.89036 42.5602 2.41166 43.3729 2.08025C44.2226 1.69361 45.1462 1.52791 46.0882 1.52791Z" fill="black"/>
<path d="M57.7807 4.78691C59.1476 4.78691 60.4775 5.30243 61.4749 6.24142C61.9552 6.70171 62.3246 7.23565 62.6017 7.84323C62.8788 8.46922 63.0265 9.15045 63.0081 9.85009C63.0081 10.5497 62.8788 11.231 62.6017 11.8754C62.3431 12.4829 61.9552 13.0169 61.4749 13.4772C59.4062 15.4288 56.1552 15.4288 54.0864 13.4772C53.6061 13.0169 53.2367 12.4829 52.9781 11.8754C52.7011 11.231 52.5718 10.5497 52.5718 9.85009C52.5533 8.48763 53.1074 7.19883 54.0864 6.25984C54.5667 5.79955 55.1208 5.44973 55.7303 5.19196C56.3768 4.91579 57.0788 4.7685 57.7807 4.78691ZM57.7807 7.18041C57.0972 7.162 56.4323 7.43818 55.9705 7.93529C55.4902 8.45081 55.2501 9.15045 55.2686 9.85009C55.2501 10.5497 55.4902 11.231 55.9705 11.7465C56.4507 12.2436 57.0972 12.5014 57.7807 12.4829C58.1132 12.4829 58.4641 12.4277 58.7781 12.2804C59.0737 12.1515 59.3507 11.9674 59.5724 11.7281C59.7941 11.4887 59.9788 11.1941 60.1081 10.8996C60.2374 10.5681 60.3113 10.2183 60.3113 9.85009C60.3113 9.48186 60.2558 9.13204 60.1081 8.80063C59.9788 8.48763 59.8125 8.21146 59.5724 7.9537C59.3507 7.71435 59.0737 7.53023 58.7781 7.40135C58.4456 7.25406 58.1132 7.18041 57.7807 7.18041Z" fill="black"/>
<path d="M69.1586 4.78698C69.6758 4.78698 70.2114 4.87904 70.6917 5.08157C71.135 5.26568 71.5229 5.52344 71.8554 5.87326C72.1694 6.22308 72.428 6.64655 72.5758 7.08843C72.7605 7.60395 72.8344 8.13789 72.8344 8.69023V14.6924H70.193V9.02164C70.2114 8.52453 70.0452 8.02742 69.7127 7.65919C69.3618 7.30937 68.8815 7.12525 68.4012 7.14366C67.9025 7.12525 67.4223 7.30937 67.0713 7.65919C66.7204 8.02742 66.5172 8.50612 66.5356 9.02164V14.674H63.8758V4.98951H66.314V5.89167C66.6649 5.54186 67.0713 5.26568 67.5331 5.08157C68.0503 4.86063 68.6044 4.76857 69.1586 4.78698Z" fill="black"/>
<path d="M77.9141 4.7501C79.2441 4.69487 80.5186 5.24721 81.4052 6.22303L80.0753 7.84324C79.7797 7.54866 79.4288 7.32772 79.0409 7.16202C78.6714 7.01472 78.2835 6.92267 77.8772 6.92267C77.6186 6.90425 77.36 6.9779 77.1199 7.08837C76.9351 7.19884 76.8243 7.40137 76.8243 7.60389C76.8243 7.78801 76.9166 7.97212 77.0644 8.08259C77.3046 8.2483 77.5632 8.37718 77.8402 8.46924L78.7823 8.85588C79.5211 9.13205 80.2046 9.5187 80.8141 10.0342C81.2944 10.4945 81.553 11.1573 81.516 11.8201C81.5345 12.2804 81.4237 12.7223 81.2205 13.1458C81.0358 13.5324 80.7587 13.8638 80.4078 14.1216C80.0383 14.3978 79.632 14.6003 79.2071 14.7108C77.9326 15.0606 76.5842 14.9501 75.3835 14.4162C74.7186 14.1032 74.146 13.6245 73.7026 13.0537L75.0326 11.4519C75.402 11.8386 75.8453 12.1515 76.3071 12.4093C76.7504 12.6487 77.2491 12.7591 77.7479 12.7591C78.0434 12.7591 78.339 12.7039 78.616 12.5566C78.8562 12.4461 78.9855 12.2068 78.9855 11.949C78.9855 11.7465 78.8746 11.544 78.6899 11.4335C78.4498 11.2862 78.2097 11.1757 77.9695 11.0653L76.9351 10.6418C76.5472 10.4945 76.1778 10.3104 75.8084 10.1079C75.4944 9.94216 75.2173 9.73963 74.9772 9.48187C74.7555 9.24252 74.5893 8.98476 74.46 8.69018C74.3307 8.37718 74.2568 8.02736 74.2752 7.67754C74.2752 7.25407 74.3491 6.83061 74.5339 6.42555C74.7186 6.07573 74.9771 5.76274 75.3096 5.5418C75.6421 5.28404 76.03 5.08151 76.4549 4.97104C76.9536 4.82375 77.4339 4.7501 77.9141 4.7501Z" fill="black"/>
<path d="M91.5091 10.4209C91.5276 11.0653 91.3983 11.6913 91.1582 12.2804C90.9365 12.8144 90.6225 13.2931 90.2161 13.6981C89.8098 14.0848 89.3295 14.3978 88.8123 14.6003C88.2582 14.8212 87.6486 14.9133 87.0575 14.9133C86.448 14.9133 85.8384 14.8212 85.2843 14.6003C84.7486 14.3978 84.2684 14.1032 83.862 13.6981C83.4556 13.2931 83.1416 12.8144 82.9199 12.2804C82.6798 11.6913 82.569 11.0469 82.569 10.4209V4.98946H85.2104V10.6234C85.1919 11.1389 85.3766 11.636 85.7461 11.9859C86.097 12.3173 86.5773 12.5014 87.0575 12.483C87.5378 12.5014 87.9996 12.3173 88.3505 11.9859C88.72 11.636 88.9047 11.1389 88.8862 10.6234V4.98946H91.5276L91.5091 10.4209Z" fill="black"/>
<path d="M95.2782 14.6924H92.6183V0H95.2782V14.6924Z" fill="black"/>
<path d="M45.996 18.2642C47.0858 18.2458 48.1571 18.5036 49.1361 19.0007C50.0597 19.4978 50.8539 20.1975 51.445 21.0628L49.5609 22.6094C49.1546 22.0386 48.6189 21.5599 48.0278 21.2101C47.3998 20.8603 46.6794 20.6946 45.959 20.713C45.3679 20.713 44.7953 20.805 44.2412 21.026C43.7425 21.2285 43.2991 21.5231 42.9297 21.9097C42.5603 22.2964 42.2648 22.7567 42.08 23.2538C41.6737 24.3585 41.6737 25.5736 42.08 26.6967C42.2648 27.2123 42.5603 27.6726 42.9482 28.0592C43.3361 28.4458 43.7979 28.7588 44.2966 28.9614C44.8507 29.1823 45.4603 29.2928 46.0698 29.2928C46.7718 29.3112 47.4552 29.1639 48.1017 28.8693C48.6558 28.5931 49.1546 28.1881 49.524 27.691V26.6415H45.9775V24.3401H52.2023V28.1513C51.9068 28.6668 51.5558 29.1455 51.1495 29.5689C50.7246 30.0108 50.2444 30.3791 49.7272 30.6736C49.173 30.9866 48.6004 31.226 47.9909 31.3917C47.3444 31.5758 46.6794 31.6679 46.0144 31.6495C45.0724 31.6495 44.1488 31.4838 43.2807 31.1339C42.4679 30.8025 41.7106 30.3238 41.0826 29.7162C40.4546 29.1087 39.9558 28.3906 39.6233 27.5989C38.9214 25.905 38.9214 23.9902 39.6233 22.2964C39.9558 21.5047 40.4546 20.7682 41.0826 20.179C41.7106 19.5715 42.4679 19.0928 43.2807 18.7614C44.1304 18.4299 45.0539 18.2458 45.996 18.2642Z" fill="black"/>
<path d="M58.4268 21.615C58.7039 21.615 58.9994 21.6518 59.2765 21.7255V24.0637H58.5746C57.8911 24.0453 57.2446 24.2478 56.709 24.6713C56.2287 25.0764 55.9886 25.7208 55.9886 26.5861V31.4284H53.3287V21.7439H55.7669V22.9038C56.0809 22.4987 56.4873 22.1673 56.9491 21.9464C57.4109 21.7254 57.9281 21.615 58.4268 21.615Z" fill="black"/>
<path d="M64.8924 21.5043C66.2593 21.5043 67.5892 22.0198 68.5867 22.9588C69.0669 23.4191 69.4548 23.953 69.7134 24.5422C69.9905 25.1682 70.1383 25.8494 70.1198 26.5491C70.1198 27.2487 69.9905 27.9299 69.7134 28.5743C69.4548 29.1819 69.0669 29.7158 68.5867 30.1761C66.5179 32.1278 63.2669 32.1278 61.1982 30.1761C60.7179 29.7158 60.3485 29.1819 60.0899 28.5743C59.8128 27.9299 59.6835 27.2487 59.6835 26.5491C59.665 25.1866 60.2192 23.8978 61.1982 22.9588C61.6784 22.4985 62.2325 22.1487 62.8421 21.8909C63.5071 21.6332 64.209 21.5043 64.8924 21.5043ZM64.8924 23.9162C64.209 23.8978 63.544 24.174 63.0822 24.6711C62.602 25.1866 62.3618 25.8862 62.3803 26.5859C62.3618 27.2855 62.602 27.9667 63.0822 28.4823C63.5625 28.9794 64.209 29.2371 64.8924 29.2187C65.2249 29.2187 65.5759 29.1635 65.8899 29.0162C66.1854 28.8873 66.4625 28.7032 66.6842 28.4639C66.9058 28.2245 67.0905 27.9299 67.2198 27.6353C67.3491 27.3039 67.423 26.9541 67.4045 26.5859C67.4045 26.2176 67.3491 25.8678 67.2013 25.5364C67.072 25.2234 66.9058 24.9472 66.6657 24.6895C66.444 24.4501 66.1669 24.266 65.8714 24.1371C65.5759 23.9898 65.2434 23.9162 64.8924 23.9162Z" fill="black"/>
<path d="M80.1124 27.1568C80.1309 27.8012 80.0016 28.4272 79.7615 29.0163C79.5398 29.5503 79.2258 30.029 78.8194 30.434C78.4131 30.8207 77.9328 31.1337 77.3971 31.3362C76.843 31.5571 76.2335 31.6492 75.6424 31.6492C75.0328 31.6492 74.4233 31.5571 73.8691 31.3362C73.3335 31.1337 72.8532 30.8391 72.4468 30.434C72.0405 30.029 71.7264 29.5503 71.5048 29.0163C71.2647 28.4272 71.1538 27.7828 71.1538 27.1568V21.7253H73.7952V27.3593C73.7768 27.8748 73.9615 28.3719 74.3309 28.7217C74.6819 29.0532 75.1621 29.2373 75.6424 29.2189C76.1226 29.2373 76.5844 29.0532 76.9354 28.7217C77.3048 28.3719 77.4895 27.8748 77.471 27.3593V21.7253H80.1124V27.1568Z" fill="black"/>
<path d="M86.8542 21.5043C87.5007 21.5043 88.1472 21.6332 88.7568 21.8909C89.3294 22.1303 89.8281 22.4985 90.2529 22.9404C90.6778 23.4007 91.0103 23.953 91.2319 24.5422C91.472 25.1866 91.6013 25.8678 91.5829 26.5675C91.5829 27.2487 91.472 27.9483 91.2319 28.5927C91.0103 29.1819 90.6778 29.7343 90.2529 30.213C89.8281 30.6732 89.3294 31.0231 88.7568 31.2808C88.1657 31.5386 87.5192 31.6675 86.8727 31.6675C85.6351 31.6675 84.6746 31.2808 83.9726 30.5075V34.9631H81.2943V21.7436H83.7325V22.9404C84.065 22.4801 84.5268 22.1303 85.044 21.8909C85.5981 21.6332 86.2262 21.5043 86.8542 21.5043ZM86.3739 23.8978C86.0599 23.8978 85.7459 23.953 85.4688 24.0451C85.1733 24.1555 84.9147 24.3028 84.6746 24.5238C84.4344 24.7631 84.2497 25.0393 84.1204 25.3523C83.9726 25.7389 83.8988 26.144 83.8988 26.549C83.8988 26.9541 83.9542 27.3592 84.102 27.7458C84.2313 28.0588 84.416 28.3534 84.6561 28.5927C84.8778 28.8137 85.1548 28.9794 85.4504 29.0898C85.7459 29.2003 86.0599 29.2556 86.3555 29.2371C86.688 29.2371 87.0204 29.1819 87.316 29.053C87.6115 28.9241 87.8886 28.7584 88.1103 28.5191C88.3504 28.2797 88.5351 28.0036 88.6459 27.6906C88.9045 26.9725 88.9045 26.1808 88.6459 25.4628C88.5351 25.1498 88.3504 24.8552 88.1103 24.5974C87.8886 24.3581 87.6115 24.174 87.316 24.0635C87.0389 23.953 86.7064 23.8978 86.3739 23.8978Z" fill="black"/>
</svg>
