<svg width="128" height="24" viewBox="0 0 128 24" fill="none" xmlns="http://www.w3.org/2000/svg">
<path d="M20.9995 20.5904C18.7571 22.863 15.8178 23.9994 12.1815 23.9994C8.54523 23.9994 5.60592 22.863 3.36355 20.5904C1.12118 18.3177 0 15.4541 0 11.9997C0 8.57553 1.12118 5.72712 3.36355 3.45446C5.60592 1.15149 8.54523 0 12.1815 0C15.8178 0 18.7571 1.15149 20.9995 3.45446C23.2418 5.72712 24.363 8.57553 24.363 11.9997C24.363 15.4541 23.2418 18.3177 20.9995 20.5904ZM12.1815 18.045C13.939 18.045 15.3784 17.4692 16.4996 16.3178C17.6511 15.136 18.2268 13.6966 18.2268 11.9997C18.2268 10.2725 17.6662 8.8331 16.545 7.68162C15.4238 6.49983 13.9693 5.90894 12.1815 5.90894C10.3937 5.90894 8.93916 6.49983 7.81798 7.68162C6.6968 8.8331 6.13621 10.2725 6.13621 11.9997C6.13621 13.7269 6.6968 15.1663 7.81798 16.3178C8.93916 17.4692 10.3937 18.045 12.1815 18.045Z" fill="black"/>
<path fill-rule="evenodd" clip-rule="evenodd" d="M39.1495 1.0661C39.1495 0.670422 39.6267 0.470919 39.9083 0.748853L51.1764 11.8691C51.2613 11.9528 51.3091 12.0671 51.3091 12.1863V22.9339C51.3091 23.3296 50.8319 23.5291 50.5503 23.2511L39.2822 12.1309C39.1973 12.0472 39.1495 11.9329 39.1495 11.8137V1.0661Z" fill="black"/>
<path fill-rule="evenodd" clip-rule="evenodd" d="M39.2188 12.1864C39.2188 12.0671 39.171 11.9529 39.0861 11.8691L27.8181 0.748862C27.5365 0.470926 27.0593 0.670428 27.0593 1.06611L27.0593 11.8136C27.0593 11.9329 27.1071 12.0471 27.192 12.1309L38.46 23.2511C38.7416 23.5291 39.2188 23.3296 39.2188 22.9339V12.1864Z" fill="black"/>
<path d="M119.56 11.5571C119.448 11.7123 119.449 11.9221 119.563 12.0757L127.396 22.617C127.611 22.9065 127.405 23.3174 127.044 23.3174H120.28C120.138 23.3174 120.004 23.2483 119.922 23.1321L115.689 17.1494C115.513 16.9002 115.143 16.9028 114.97 17.1544L110.866 23.1271C110.784 23.2463 110.649 23.3174 110.504 23.3174H103.887C103.525 23.3174 103.319 22.9042 103.536 22.615L111.355 12.2174C111.473 12.0614 111.473 11.8467 111.356 11.6905L103.626 1.38358C103.409 1.09436 103.615 0.681641 103.977 0.681641H110.733C110.877 0.681641 111.011 0.751899 111.093 0.869749L115.279 6.88364C115.455 7.13656 115.83 7.13398 116.002 6.87865L120.059 0.874737C120.141 0.753995 120.277 0.681641 120.423 0.681641H126.558C126.916 0.681641 127.124 1.08714 126.914 1.37727L119.56 11.5571Z" fill="black"/>
<path d="M91.497 0C95.2545 0 98.2241 1.3333 100.406 3.9999C102.516 6.57927 103.408 9.79658 103.08 13.6518C103.061 13.8755 102.872 14.0451 102.647 14.0451H86.4611C86.1929 14.0451 85.986 14.2844 86.0515 14.5445C86.3028 15.5427 86.8453 16.4065 87.6789 17.1359C88.6789 17.9541 89.9364 18.3935 91.4516 18.4541C92.5121 18.5147 93.497 18.3329 94.406 17.9086C95.2467 17.5019 95.869 16.9859 96.2728 16.3607C96.3601 16.2254 96.5063 16.1359 96.6673 16.1359H102.229C102.522 16.1359 102.733 16.4174 102.637 16.694C101.872 18.9129 100.537 20.6662 98.6332 21.954C96.5726 23.3176 94.1788 23.9994 91.4516 23.9994C87.785 23.9994 84.9063 22.8479 82.8154 20.5449C80.7246 18.2117 79.6791 15.3632 79.6791 11.9997C79.6791 8.60584 80.7852 5.75743 82.9972 3.45446C85.2396 1.15149 88.0729 0 91.497 0ZM94.8606 6.49983C93.9212 5.83318 92.7849 5.49986 91.4516 5.49986C90.1183 5.49986 88.9516 5.84833 87.9516 6.54528C87.1423 7.10172 86.5546 7.82705 86.1886 8.72126C86.0779 8.9916 86.2888 9.27249 86.5809 9.27249H96.2355C96.5263 9.27249 96.7371 8.99387 96.63 8.72347C96.2644 7.80072 95.6746 7.05951 94.8606 6.49983Z" fill="black"/>
<path d="M67.6762 0.0454102C70.464 0.0454102 72.6609 0.939327 74.2669 2.72716C75.8729 4.51499 76.6759 7.01493 76.6759 10.227V22.8788C76.6759 23.1211 76.4795 23.3175 76.2372 23.3175H70.9784C70.7361 23.3175 70.5397 23.1211 70.5397 22.8788V11.136C70.5397 9.56032 70.1003 8.31792 69.2216 7.40886C68.3428 6.49979 67.2368 6.04526 65.9035 6.04526C64.4793 6.04526 63.2672 6.56039 62.2672 7.59067C61.2672 8.59064 60.7672 9.92394 60.7672 11.5906V22.8788C60.7672 23.1211 60.5708 23.3175 60.3285 23.3175H55.0698C54.8275 23.3175 54.631 23.1211 54.631 22.8788V1.12047C54.631 0.878177 54.8275 0.681759 55.0698 0.681759H60.1467C60.389 0.681759 60.5854 0.878177 60.5854 1.12047V3.25883C60.5854 3.34175 60.6526 3.40896 60.7356 3.40896V3.40896C60.784 3.40896 60.8295 3.38531 60.8581 3.34618C62.4617 1.14567 64.7344 0.0454102 67.6762 0.0454102Z" fill="black"/>
</svg>
