<svg width="149" height="166" viewBox="0 0 149 166" fill="none" xmlns="http://www.w3.org/2000/svg">
<path opacity="0.15" fill-rule="evenodd" clip-rule="evenodd" d="M63.4635 64.4443L2.50802 4.4266C1.57625 3.50917 0 4.16925 0 5.47686L9.49384e-06 84.231C9.54144e-06 84.6258 0.15845 85.0042 0.439818 85.2812L81.6782 165.27C82.61 166.187 84.1862 165.527 84.1862 164.22V105.252L145.142 165.27C146.073 166.187 147.65 165.527 147.65 164.22V85.4655C147.65 85.0706 147.491 84.6923 147.21 84.4152L65.9715 4.4266C65.0397 3.50917 63.4635 4.16925 63.4635 5.47686L63.4635 64.4443Z" fill="#65B2FF"/>
<path d="M116.312 83.8525C98.7382 83.8525 84.4244 98.1663 84.4244 115.74C84.4244 133.313 98.7382 147.627 116.312 147.627C133.885 147.627 148.199 133.313 148.199 115.74C148.199 98.1663 133.885 83.8525 116.312 83.8525ZM126.941 116.803C125.665 118.574 124.107 120.204 122.406 121.905C120.705 123.605 119.075 125.235 117.304 126.44C111.422 130.62 105.683 131.967 103.202 129.486L100.935 127.219C100.368 126.581 101.218 124.809 102.848 123.179C104.478 121.55 106.32 120.699 106.887 121.266L108.942 123.321L108.8 123.179C110.217 124.596 112.981 124.171 115.957 122.47C117.232 121.69 118.508 120.557 119.713 119.352C120.917 118.147 121.98 117.014 122.759 115.738C124.602 112.691 125.027 109.857 123.609 108.44L123.751 108.581L121.697 106.527C121.13 105.96 121.98 104.118 123.61 102.487C125.24 100.858 127.082 100.007 127.649 100.574L129.917 102.842C132.468 105.252 131.051 110.921 126.941 116.803L126.941 116.803Z" fill="#FF4D00"/>
<mask id="mask0_1004_6" style="mask-type:alpha" maskUnits="userSpaceOnUse" x="12" y="0" width="92" height="107">
<path d="M12 0V106.938H70.1711C74.5118 106.938 78.0306 103.42 78.0306 99.0789V80.174C78.0306 76.7015 80.8457 73.8864 84.3182 73.8864H92.6952C98.8962 73.8864 103.923 68.8595 103.923 62.6585V0H12Z" fill="#D9D9D9"/>
</mask>
<g mask="url(#mask0_1004_6)">
<path fill-rule="evenodd" clip-rule="evenodd" d="M58.4803 54.7687C60.2349 55.6668 62.1472 56.2804 64.1225 56.6544C65.393 56.8937 66.6654 57 67.9804 57H68.0824C69.3677 57 70.5659 56.8652 71.7492 56.6544C73.7505 56.3089 75.6794 55.6671 77.4342 54.7994C82.913 52.0918 87.1365 47.2443 88.9484 41.2005C89.592 39.091 90 36.8467 90 34.498C90 22.0671 80.0921 12 67.9786 12C61.0957 12 55.0029 15.3057 50.9689 20.4076C47.9012 24.2659 46 29.1439 46 34.4999C46 36.8638 46.3654 39.167 47.009 41.2763C48.8489 47.2438 53.059 52.0894 58.4803 54.7687Z" fill="url(#paint0_linear_1004_6)"/>
<path fill-rule="evenodd" clip-rule="evenodd" d="M91.2705 66.0585L67.9987 66H44.3836C30.9348 66 19.7893 75.5353 16.8167 88.3594C16.3112 90.5156 16 92.7172 16 94.9945V110.09C16 113.354 18.646 116 21.91 116L114.09 115.998C117.354 115.998 120 113.352 120 110.088V94.9942C119.659 80.2647 108.303 66.0587 91.2732 66.0587L91.2705 66.0585Z" fill="url(#paint1_linear_1004_6)"/>
</g>
<defs>
<linearGradient id="paint0_linear_1004_6" x1="68" y1="66" x2="68" y2="116" gradientUnits="userSpaceOnUse">
<stop stop-color="#76ADE3"/>
<stop offset="1" stop-color="#9CC7F4"/>
</linearGradient>
<linearGradient id="paint1_linear_1004_6" x1="68" y1="66" x2="68" y2="116" gradientUnits="userSpaceOnUse">
<stop stop-color="#76ADE3"/>
<stop offset="1" stop-color="#9CC7F4"/>
</linearGradient>
</defs>
</svg>
