<svg width="803" height="553" viewBox="0 0 803 553" fill="none" xmlns="http://www.w3.org/2000/svg">
<g filter="url(#filter0_d_1203_2)">
<path d="M103.05 454.74V383.151L230.647 248.233C243.48 234.282 252.83 223.085 258.697 214.641C264.563 205.83 267.496 197.203 267.496 188.759C267.496 179.214 264.38 171.504 258.147 165.63C252.28 159.756 244.03 156.819 233.397 156.819C210.664 156.819 193.431 170.219 181.698 197.019L97 149.66C109.466 120.658 127.799 98.6301 151.999 83.5781C176.198 68.526 202.964 61 232.297 61C268.963 61 300.312 72.0137 326.345 94.0411C352.745 115.701 365.944 145.438 365.944 183.252C365.944 205.647 360.628 226.389 349.995 245.479C339.728 264.203 324.512 284.027 304.346 304.953L252.097 359.471H372.544V454.74H103.05Z" fill="url(#paint0_linear_1203_2)"/>
<path d="M514.003 204.729C551.769 204.729 583.118 215.742 608.051 237.77C633.35 259.797 646 291.003 646 331.386C646 373.238 632.434 405.729 605.301 428.858C578.168 451.619 544.435 463 504.103 463C470.37 463 441.038 455.841 416.105 441.523C391.172 426.838 373.022 404.995 361.656 375.992L447.454 326.981C455.521 353.781 474.404 367.181 504.103 367.181C518.036 367.181 528.669 364.06 536.002 357.819C543.702 351.211 547.552 342.4 547.552 331.386C547.552 320.005 543.702 311.195 536.002 304.953C528.669 298.712 518.586 295.592 505.753 295.592H382.556L398.505 69.2603H625.1V163.427H489.253L486.503 204.729H514.003Z" fill="url(#paint1_linear_1203_2)"/>
</g>
<g filter="url(#filter1_d_1203_2)">
<path fill-rule="evenodd" clip-rule="evenodd" d="M88.9232 468.743V377.483L220.303 238.621C232.898 224.931 241.687 214.358 247.001 206.733C251.661 199.702 253.361 193.791 253.361 188.792C253.361 182.648 251.51 178.826 248.441 175.934L248.286 175.788L248.135 175.637C245.597 173.097 241.342 170.957 233.341 170.957C224.962 170.957 218.041 173.348 212.004 178.041C205.763 182.891 199.771 190.761 194.539 202.705L188.316 216.915L79 155.816L84.0204 144.141C97.4967 112.801 117.617 88.4159 144.519 71.6894C171.016 55.2148 200.367 47 232.242 47C271.923 47 306.534 58.9962 335.291 83.2866C359.036 102.793 373.189 128.118 378.048 158.412L385.321 55.2565H639.102V177.562H502.355L501.482 190.664H513.932C554.609 190.664 589.402 202.605 617.249 227.179C646.22 252.413 660 287.835 660 331.355C660 376.527 645.18 413.242 614.351 439.511L614.309 439.547L614.266 439.583C584.25 464.754 547.181 477 504.033 477C468.274 477 436.443 469.398 409.035 453.665L408.968 453.627L408.901 453.588C400.801 448.818 393.354 443.372 386.559 437.266V468.743H88.9232ZM372.481 398.187C376.655 405.12 381.347 411.505 386.559 417.343C395.018 426.819 404.845 434.852 416.039 441.442C440.971 455.754 470.302 462.91 504.033 462.91C544.363 462.91 578.094 451.534 605.225 428.782C632.356 405.664 645.922 373.188 645.922 331.355C645.922 290.99 633.273 259.798 607.975 237.781C583.043 215.763 551.696 204.755 513.932 204.755H486.434L489.184 163.472H625.023V69.347H398.441L382.492 295.577H505.682C518.515 295.577 528.597 298.696 535.93 304.934C543.63 311.172 547.479 319.979 547.479 331.355C547.479 342.364 543.63 351.171 535.93 357.776C528.597 364.014 517.965 367.133 504.033 367.133C479.671 367.133 462.587 358.12 452.782 340.093C450.634 336.145 448.836 331.765 447.387 326.952L372.481 369.724V359.427H252.04L304.286 304.934C324.451 284.017 339.667 264.202 349.933 245.487C360.565 226.405 365.881 205.672 365.881 183.287C365.881 145.491 352.682 115.767 326.284 94.1167C300.253 72.0992 268.905 61.0905 232.242 61.0905C202.91 61.0905 176.146 68.6131 151.948 83.6584C127.75 98.7037 109.418 120.721 96.9518 149.711L181.645 197.048C183.643 192.486 185.801 188.313 188.118 184.528C199.407 166.087 214.481 156.867 233.341 156.867C243.974 156.867 252.223 159.802 258.09 165.674C264.322 171.545 267.439 179.251 267.439 188.792C267.439 197.232 264.506 205.855 258.64 214.662C252.773 223.102 243.424 234.295 230.592 248.239L103.001 383.096V454.653H372.481V398.187ZM362.252 252.306C351.217 272.413 335.154 293.207 314.432 314.703C314.427 314.708 314.422 314.713 314.417 314.718L285.061 345.337H386.559V345.462L449.247 309.667H367.385L373.2 227.187C370.414 235.823 366.765 244.201 362.252 252.306ZM456.886 309.667L460.866 322.886C464.189 333.921 469.352 341.062 475.738 345.592C482.205 350.179 491.275 353.043 504.033 353.043C516.065 353.043 522.927 350.333 526.79 347.059C531.068 343.379 533.401 338.632 533.401 331.355C533.401 323.527 530.959 319.035 527.072 315.886L526.941 315.78L526.812 315.67C522.767 312.229 516.298 309.667 505.682 309.667H456.886Z" fill="url(#paint2_linear_1203_2)"/>
</g>
<g filter="url(#filter2_d_1203_2)">
<path d="M679.907 128.005C671.144 128.005 663.785 125.084 657.83 119.242C651.876 113.287 648.898 106.097 648.898 97.6708C648.898 89.2445 651.876 82.1103 657.83 76.2681C663.785 70.4259 671.144 67.5048 679.907 67.5048C688.67 67.5048 695.973 70.4259 701.815 76.2681C707.657 82.1103 710.578 89.2445 710.578 97.6708C710.578 106.209 707.601 113.4 701.647 119.242C695.804 125.084 688.558 128.005 679.907 128.005ZM666.425 169.462L743.946 85.1999L755.743 91.9409L678.053 176.035L666.425 169.462ZM679.738 106.603C682.322 106.603 684.401 105.76 685.974 104.075C687.659 102.277 688.502 100.142 688.502 97.6708C688.502 95.1991 687.659 93.1206 685.974 91.4354C684.401 89.7501 682.322 88.9075 679.738 88.9075C677.267 88.9075 675.188 89.7501 673.503 91.4354C671.93 93.1206 671.144 95.1991 671.144 97.6708C671.144 100.255 671.93 102.389 673.503 104.075C675.188 105.76 677.267 106.603 679.738 106.603ZM745.126 190.359C736.25 190.359 728.835 187.438 722.881 181.596C717.039 175.754 714.117 168.62 714.117 160.193C714.117 151.655 717.039 144.464 722.881 138.622C728.835 132.78 736.25 129.859 745.126 129.859C753.889 129.859 761.192 132.836 767.034 138.791C772.876 144.633 775.797 151.767 775.797 160.193C775.797 168.62 772.82 175.754 766.866 181.596C761.023 187.438 753.777 190.359 745.126 190.359ZM738.722 166.429C740.407 168.114 742.486 168.957 744.957 168.957C747.429 168.957 749.451 168.114 751.024 166.429C752.71 164.631 753.552 162.553 753.552 160.193C753.552 157.609 752.71 155.475 751.024 153.789C749.451 152.104 747.429 151.262 744.957 151.262C742.486 151.262 740.407 152.104 738.722 153.789C737.149 155.475 736.363 157.609 736.363 160.193C736.363 162.665 737.149 164.744 738.722 166.429Z" fill="url(#paint3_linear_1203_2)"/>
</g>
<rect y="254" width="92" height="44" fill="#4D92D7"/>
<defs>
<filter id="filter0_d_1203_2" x="76.3297" y="14.2199" width="670.846" height="523.846" filterUnits="userSpaceOnUse" color-interpolation-filters="sRGB">
<feFlood flood-opacity="0" result="BackgroundImageFix"/>
<feColorMatrix in="SourceAlpha" type="matrix" values="0 0 0 0 0 0 0 0 0 0 0 0 0 0 0 0 0 0 127 0" result="hardAlpha"/>
<feOffset dx="40.2527" dy="14.1428"/>
<feGaussianBlur stdDeviation="30.4615"/>
<feComposite in2="hardAlpha" operator="out"/>
<feColorMatrix type="matrix" values="0 0 0 0 0.0325 0 0 0 0 0.0975 0 0 0 0 0.1625 0 0 0 0.15 0"/>
<feBlend mode="normal" in2="BackgroundImageFix" result="effect1_dropShadow_1203_2"/>
<feBlend mode="normal" in="SourceGraphic" in2="effect1_dropShadow_1203_2" result="shape"/>
</filter>
<filter id="filter1_d_1203_2" x="58.3297" y="0.219851" width="702.846" height="551.846" filterUnits="userSpaceOnUse" color-interpolation-filters="sRGB">
<feFlood flood-opacity="0" result="BackgroundImageFix"/>
<feColorMatrix in="SourceAlpha" type="matrix" values="0 0 0 0 0 0 0 0 0 0 0 0 0 0 0 0 0 0 127 0" result="hardAlpha"/>
<feOffset dx="40.2527" dy="14.1428"/>
<feGaussianBlur stdDeviation="30.4615"/>
<feComposite in2="hardAlpha" operator="out"/>
<feColorMatrix type="matrix" values="0 0 0 0 0.0325 0 0 0 0 0.0975 0 0 0 0 0.1625 0 0 0 0.15 0"/>
<feBlend mode="normal" in2="BackgroundImageFix" result="effect1_dropShadow_1203_2"/>
<feBlend mode="normal" in="SourceGraphic" in2="effect1_dropShadow_1203_2" result="shape"/>
</filter>
<filter id="filter2_d_1203_2" x="643.434" y="55.138" width="159.11" height="155.066" filterUnits="userSpaceOnUse" color-interpolation-filters="sRGB">
<feFlood flood-opacity="0" result="BackgroundImageFix"/>
<feColorMatrix in="SourceAlpha" type="matrix" values="0 0 0 0 0 0 0 0 0 0 0 0 0 0 0 0 0 0 127 0" result="hardAlpha"/>
<feOffset dx="10.6412" dy="3.73881"/>
<feGaussianBlur stdDeviation="8.05283"/>
<feComposite in2="hardAlpha" operator="out"/>
<feColorMatrix type="matrix" values="0 0 0 0 0.0325 0 0 0 0 0.0975 0 0 0 0 0.1625 0 0 0 0.15 0"/>
<feBlend mode="normal" in2="BackgroundImageFix" result="effect1_dropShadow_1203_2"/>
<feBlend mode="normal" in="SourceGraphic" in2="effect1_dropShadow_1203_2" result="shape"/>
</filter>
<linearGradient id="paint0_linear_1203_2" x1="237.125" y1="11.1279" x2="374.532" y2="476.11" gradientUnits="userSpaceOnUse">
<stop stop-color="#93C4F5"/>
<stop offset="0.78125" stop-color="#3B89D7"/>
</linearGradient>
<linearGradient id="paint1_linear_1203_2" x1="237.125" y1="11.1279" x2="374.532" y2="476.11" gradientUnits="userSpaceOnUse">
<stop stop-color="#93C4F5"/>
<stop offset="0.78125" stop-color="#3B89D7"/>
</linearGradient>
<linearGradient id="paint2_linear_1203_2" x1="260.292" y1="2.30122" x2="374.337" y2="476.063" gradientUnits="userSpaceOnUse">
<stop stop-color="#91C3F4"/>
<stop offset="0.721709" stop-color="#3C8AD7"/>
</linearGradient>
<linearGradient id="paint3_linear_1203_2" x1="703" y1="64" x2="703" y2="178" gradientUnits="userSpaceOnUse">
<stop stop-color="#93C4F5"/>
<stop offset="0.78125" stop-color="#6FA7DE"/>
</linearGradient>
</defs>
</svg>
