<svg width="148" height="162" viewBox="0 0 148 162" fill="none" xmlns="http://www.w3.org/2000/svg">
<path opacity="0.15" fill-rule="evenodd" clip-rule="evenodd" d="M63.4635 60.4443L2.50802 0.426601C1.57625 -0.490827 -1.57633e-07 0.169246 0 1.47686L9.49384e-06 80.231C9.54145e-06 80.6258 0.15845 81.0042 0.439818 81.2812L81.6782 161.27C82.61 162.187 84.1862 161.527 84.1862 160.22V101.252L145.142 161.27C146.073 162.187 147.65 161.527 147.65 160.22V81.4655C147.65 81.0706 147.491 80.6923 147.21 80.4152L65.9715 0.426601C65.0397 -0.490827 63.4635 0.169246 63.4635 1.47686L63.4635 60.4443Z" fill="#65B2FF"/>
<path d="M24.6083 80.4665C24.6083 77.2026 27.2542 74.5566 30.5182 74.5566H116.383C119.647 74.5566 122.293 77.2026 122.293 80.4665V113.246C122.293 116.51 119.647 119.156 116.383 119.156H30.5182C27.2542 119.156 24.6083 116.51 24.6083 113.246V80.4665Z" fill="url(#paint0_linear_813_950)"/>
<path d="M33.5161 31.5771H31.0064C27.7425 31.5771 25.0966 34.2231 25.0966 37.487V56.1565C25.0966 59.4204 27.7425 62.0664 31.0064 62.0664H62.0629C65.3268 62.0664 67.9727 59.4204 67.9727 56.1565V37.487C67.9727 34.2231 65.3268 31.5771 62.0629 31.5771H33.5161Z" fill="#FF4D00"/>
<path d="M39.3669 66.7395C39.3669 65.7917 40.1352 65.0234 41.083 65.0234H51.9929C52.9406 65.0234 53.7089 65.7917 53.7089 66.7395C53.7089 67.6872 52.9406 68.4555 51.9929 68.4555H41.083C40.1352 68.4555 39.3669 67.6872 39.3669 66.7395Z" fill="#FF4D00"/>
<path fill-rule="evenodd" clip-rule="evenodd" d="M97.571 43.3159C97.571 43.3159 97.571 43.316 97.571 43.316C98.2864 43.6737 99.0662 43.9179 99.8716 44.0669C100.39 44.1622 100.908 44.2046 101.445 44.2046H101.486C102.01 44.2046 102.499 44.1509 102.981 44.0669C103.797 43.9293 104.584 43.6737 105.299 43.328C107.534 42.2496 109.256 40.3188 109.994 37.9115C110.257 37.0713 110.423 36.1774 110.423 35.2419C110.423 30.2906 106.383 26.2808 101.444 26.2808C98.6374 26.2808 96.1531 27.5974 94.5082 29.6296C93.2573 31.1663 92.4821 33.1093 92.4821 35.2426C92.4821 36.1842 92.6311 37.1016 92.8935 37.9417C93.6437 40.3186 95.3604 42.2487 97.571 43.3158C97.571 43.3158 97.571 43.3159 97.571 43.3159Z" fill="url(#paint1_linear_813_950)"/>
<path fill-rule="evenodd" clip-rule="evenodd" d="M110.773 48.4585L101.442 48.4351H91.9736C86.5813 48.4351 82.1125 52.2543 80.9206 57.3909C80.7179 58.2546 80.5931 59.1364 80.5931 60.0486V60.162V62.5522C80.5931 65.8161 83.2391 68.4621 86.5031 68.462L116.382 68.4615C119.646 68.4614 122.292 65.8155 122.292 62.5516V60.3343V60.0485C122.155 54.1487 117.602 48.4586 110.774 48.4586L110.773 48.4585Z" fill="url(#paint2_linear_813_950)"/>
<defs>
<linearGradient id="paint0_linear_813_950" x1="73.4505" y1="74.5566" x2="73.4505" y2="119.156" gradientUnits="userSpaceOnUse">
<stop stop-color="#76ADE3"/>
<stop offset="1" stop-color="#9CC7F4"/>
</linearGradient>
<linearGradient id="paint1_linear_813_950" x1="101.453" y1="26.2808" x2="101.453" y2="44.2046" gradientUnits="userSpaceOnUse">
<stop stop-color="#76ADE3"/>
<stop offset="1" stop-color="#9CC7F4"/>
</linearGradient>
<linearGradient id="paint2_linear_813_950" x1="101.443" y1="48.4351" x2="101.443" y2="68.4621" gradientUnits="userSpaceOnUse">
<stop stop-color="#76ADE3"/>
<stop offset="1" stop-color="#9CC7F4"/>
</linearGradient>
</defs>
</svg>
