<svg width="335" height="1062" viewBox="0 0 335 1062" fill="none" xmlns="http://www.w3.org/2000/svg">
<path opacity="0.24" fill-rule="evenodd" clip-rule="evenodd" d="M492 313.578C492 310.33 490.695 307.218 488.378 304.942L198.592 20.2315C190.935 12.7082 178 18.1331 178 28.8679L178 303.422C178 306.67 179.305 309.782 181.622 312.058L471.408 596.768C479.065 604.292 492 598.867 492 588.132V313.578Z" fill="white"/>
<path opacity="0.24" fill-rule="evenodd" clip-rule="evenodd" d="M492 859.578C492 856.33 490.695 853.218 488.378 850.942L198.592 566.232C190.935 558.708 178 564.133 178 574.868L178 849.422C178 852.67 179.305 855.782 181.622 858.058L471.408 1142.77C479.065 1150.29 492 1144.87 492 1134.13V859.578Z" fill="white"/>
<path opacity="0.24" fill-rule="evenodd" clip-rule="evenodd" d="M178 313.586C178 310.333 176.691 307.217 174.368 304.94L20.5828 154.178C12.9216 146.668 2.19091e-06 152.095 3.48987e-06 162.824L2.05121e-05 303.414C2.09059e-05 306.667 1.30882 309.783 3.63154 312.06L157.417 462.822C165.078 470.332 178 464.905 178 454.176V313.586Z" fill="white"/>
</svg>
