<svg width="379" height="831" viewBox="0 0 379 831" fill="none" xmlns="http://www.w3.org/2000/svg">
<path opacity="0.24" fill-rule="evenodd" clip-rule="evenodd" d="M130 182.075C130 178.828 128.696 175.718 126.382 173.442L-29.4041 20.2527C-37.06 12.7243 -50 18.148 -50 28.8854L-50 171.925C-50 175.172 -48.6963 178.282 -46.3816 180.558L109.404 333.747C117.06 341.276 130 335.852 130 325.115V182.075Z" fill="white"/>
<path opacity="0.24" fill-rule="evenodd" clip-rule="evenodd" d="M118 579.075C118 575.828 116.696 572.718 114.382 570.442L-41.4041 417.253C-49.06 409.724 -62 415.148 -62 425.885L-62 568.925C-62 572.172 -60.6963 575.282 -58.3816 577.558L97.4041 730.747C105.06 738.276 118 732.852 118 722.115V579.075Z" fill="white"/>
<path opacity="0.24" fill-rule="evenodd" clip-rule="evenodd" d="M379 579.577C379 576.329 377.695 573.218 375.379 570.942L138.593 338.238C130.936 330.713 118 336.138 118 346.874L118 569.423C118 572.671 119.305 575.782 121.621 578.058L358.407 810.762C366.064 818.287 379 812.862 379 802.126V579.577Z" fill="white"/>
</svg>
