<svg width="207" height="243" viewBox="0 0 207 243" fill="none" xmlns="http://www.w3.org/2000/svg">
<g filter="url(#filter0_d_816_1328)">
<path fill-rule="evenodd" clip-rule="evenodd" d="M59.6022 13C50.4331 13 43 20.4331 43 29.6022V187.324C43 196.493 50.4331 203.926 59.6022 203.926H179.968C189.138 203.926 196.571 196.493 196.571 187.323V29.6022C196.571 20.4331 189.138 13 179.968 13H59.6022ZM79.5 67C75.3579 67 72 70.3579 72 74.5C72 78.6421 75.3579 82 79.5 82H166.5C170.642 82 174 78.6421 174 74.5C174 70.3579 170.642 67 166.5 67H79.5ZM72 104.5C72 100.358 75.3579 97 79.5 97H166.5C170.642 97 174 100.358 174 104.5C174 108.642 170.642 112 166.5 112H79.5C75.3579 112 72 108.642 72 104.5ZM79.5 127C75.3579 127 72 130.358 72 134.5C72 138.642 75.3579 142 79.5 142H166.5C170.642 142 174 138.642 174 134.5C174 130.358 170.642 127 166.5 127H79.5Z" fill="url(#paint0_linear_816_1328)"/>
</g>
<defs>
<filter id="filter0_d_816_1328" x="0.845131" y="0.0302114" width="205.45" height="242.805" filterUnits="userSpaceOnUse" color-interpolation-filters="sRGB">
<feFlood flood-opacity="0" result="BackgroundImageFix"/>
<feColorMatrix in="SourceAlpha" type="matrix" values="0 0 0 0 0 0 0 0 0 0 0 0 0 0 0 0 0 0 127 0" result="hardAlpha"/>
<feOffset dx="-16.2153" dy="12.9698"/>
<feGaussianBlur stdDeviation="12.9698"/>
<feComposite in2="hardAlpha" operator="out"/>
<feColorMatrix type="matrix" values="0 0 0 0 0 0 0 0 0 0 0 0 0 0 0 0 0 0 0.12 0"/>
<feBlend mode="normal" in2="BackgroundImageFix" result="effect1_dropShadow_816_1328"/>
<feBlend mode="normal" in="SourceGraphic" in2="effect1_dropShadow_816_1328" result="shape"/>
</filter>
<linearGradient id="paint0_linear_816_1328" x1="119.785" y1="13" x2="119.785" y2="203.926" gradientUnits="userSpaceOnUse">
<stop stop-color="#3A87D3"/>
<stop offset="1" stop-color="#78B1EA"/>
</linearGradient>
</defs>
</svg>
