<svg width="113" height="118" viewBox="0 0 113 118" fill="none" xmlns="http://www.w3.org/2000/svg">
<path d="M61.7744 8.36254V56.4567C61.7744 57.3606 62.28 58.1886 63.0841 58.6015L103.182 79.1886C104.178 79.7 105.4 79.4682 106.024 78.5387C110.574 71.7632 115.579 55.7698 108.774 37.7862C99.9853 14.5586 76.8159 7.12996 64.2364 6.03359C62.8875 5.91603 61.7744 7.00857 61.7744 8.36254Z" fill="url(#paint0_linear_851_277)"/>
<path d="M49.0503 0.261877C25.201 1.74631 11.404 15.8208 6.42389 24.3985C5.79715 25.4779 6.22298 26.8251 7.29988 27.4563L47.8901 51.2454C49.4973 52.1874 51.52 51.0348 51.52 49.1719V2.62311C51.52 1.26827 50.4026 0.177712 49.0503 0.261877Z" fill="#FF4D00"/>
<path d="M100.225 89.8391L9.47788 38.1047C8.33933 37.4557 6.89331 37.8199 6.30735 38.9922C-1.21 54.0315 -6.90842 91.9184 26.0559 109.668C64.6773 129.318 91.2751 107.936 101.061 93.0963C101.798 91.9789 101.388 90.502 100.225 89.8391Z" fill="url(#paint1_linear_851_277)"/>
<defs>
<linearGradient id="paint0_linear_851_277" x1="61.4441" y1="-7.17348" x2="100.201" y2="64.8892" gradientUnits="userSpaceOnUse">
<stop stop-color="#72A9E0"/>
<stop offset="1" stop-color="#ACD4FC"/>
</linearGradient>
<linearGradient id="paint1_linear_851_277" x1="0.887299" y1="36.4261" x2="51.4257" y2="117.572" gradientUnits="userSpaceOnUse">
<stop stop-color="#72A9E0"/>
<stop offset="1" stop-color="#ACD4FC"/>
</linearGradient>
</defs>
</svg>
