<svg width="83" height="74" viewBox="0 0 83 74" fill="none" xmlns="http://www.w3.org/2000/svg">
<path d="M82.3009 23.3465L73.118 3.99613C72.0245 1.59102 69.6193 0.169434 66.9961 0.169434H16.161C13.537 0.169434 11.2416 1.69992 10.148 3.99613L0.965087 23.2368C-0.128454 25.751 1.62091 28.4841 4.3539 28.4841L8.83633 28.4848V43.3527H43.4917C46.7716 43.3527 49.8324 44.8832 51.9098 47.3975C53.9871 50.0214 54.6428 53.3005 53.8772 56.5804L49.7235 73.7445H68.9641C72.0252 73.7445 74.4303 71.2303 74.4303 68.2784V28.5942H78.9127C81.6458 28.5942 83.3951 25.752 82.3015 23.3468L82.3009 23.3465Z" fill="url(#paint0_linear_813_937)"/>
<defs>
<linearGradient id="paint0_linear_813_937" x1="41.6333" y1="0.169434" x2="41.6333" y2="73.7445" gradientUnits="userSpaceOnUse">
<stop stop-color="#73AAE1"/>
<stop offset="1" stop-color="#A0CBF6"/>
</linearGradient>
</defs>
</svg>
