<svg width="69" height="63" viewBox="0 0 69 63" fill="none" xmlns="http://www.w3.org/2000/svg">
<path d="M65.4913 9.67741H18.9197L17.2802 3.00871C16.8432 1.47823 15.5308 0.384766 13.8914 0.384766H4.27076C2.30333 0.384766 0.772034 1.91525 0.772034 3.88349C0.772034 5.85091 2.30251 7.38222 4.27076 7.38222L11.1575 7.38145L19.7936 41.8182C20.2306 43.3487 21.543 44.4421 23.1824 44.4421H58.8217C60.4612 44.4421 61.7736 43.3486 62.2105 41.8182L68.8792 14.1595C69.0981 13.1757 68.8792 11.9732 68.2234 11.2076C67.5684 10.1148 66.5846 9.67784 65.4911 9.67784L65.4913 9.67741Z" fill="#FF4D00"/>
<path d="M33.2346 56.0962C33.2346 59.5933 30.3985 62.4294 26.9013 62.4294C23.4034 62.4294 20.5673 59.5933 20.5673 56.0962C20.5673 52.5983 23.4034 49.7622 26.9013 49.7622C30.3985 49.7622 33.2346 52.5983 33.2346 56.0962Z" fill="#FF4D00"/>
<path d="M58.569 56.0962C58.569 59.5933 55.7329 62.4294 52.2358 62.4294C48.7378 62.4294 45.9017 59.5933 45.9017 56.0962C45.9017 52.5983 48.7378 49.7622 52.2358 49.7622C55.7329 49.7622 58.569 52.5983 58.569 56.0962Z" fill="#FF4D00"/>
</svg>
