<svg width="148" height="163" viewBox="0 0 148 163" fill="none" xmlns="http://www.w3.org/2000/svg">
<path opacity="0.15" fill-rule="evenodd" clip-rule="evenodd" d="M63.4635 61.1811L2.50802 1.16342C1.57625 0.245989 0 0.906063 0 2.21368L9.49384e-06 80.9678C9.54144e-06 81.3627 0.15845 81.741 0.439818 82.018L81.6782 162.007C82.61 162.924 84.1862 162.264 84.1862 160.956V101.989L145.142 162.007C146.073 162.924 147.65 162.264 147.65 160.956V82.2023C147.65 81.8074 147.491 81.4291 147.21 81.1521L65.9715 1.16342C65.0397 0.245989 63.4635 0.906063 63.4635 2.21368L63.4635 61.1811Z" fill="#65B2FF"/>
<path d="M125.301 53.3465L116.118 33.9961C115.024 31.591 112.619 30.1694 109.996 30.1694H59.161C56.537 30.1694 54.2416 31.6999 53.148 33.9961L43.9651 53.2368C42.8715 55.751 44.6209 58.4841 47.3539 58.4841L51.8363 58.4848V73.3527H86.4917C89.7716 73.3527 92.8324 74.8832 94.9098 77.3975C96.9871 80.0214 97.6428 83.3005 96.8772 86.5804L92.7235 103.745H111.964C115.025 103.745 117.43 101.23 117.43 98.2784V58.5942H121.913C124.646 58.5942 126.395 55.752 125.302 53.3468L125.301 53.3465Z" fill="url(#paint0_linear_926_258)"/>
<path d="M86.4913 80.6774H39.9197L38.2802 74.0087C37.8432 72.4782 36.5308 71.3848 34.8914 71.3848H25.2708C23.3033 71.3848 21.772 72.9152 21.772 74.8835C21.772 76.8509 23.3025 78.3822 25.2708 78.3822L32.1575 78.3815L40.7936 112.818C41.2306 114.349 42.543 115.442 44.1824 115.442H79.8217C81.4613 115.442 82.7736 114.349 83.2105 112.818L89.8792 85.1595C90.0981 84.1757 89.8792 82.9732 89.2234 82.2076C88.5684 81.1148 87.5846 80.6778 86.4911 80.6778L86.4913 80.6774Z" fill="#FF4D00"/>
<path d="M54.2346 127.096C54.2346 130.593 51.3985 133.429 47.9013 133.429C44.4034 133.429 41.5673 130.593 41.5673 127.096C41.5673 123.598 44.4034 120.762 47.9013 120.762C51.3985 120.762 54.2346 123.598 54.2346 127.096Z" fill="#FF4D00"/>
<path d="M79.569 127.096C79.569 130.593 76.7329 133.429 73.2358 133.429C69.7378 133.429 66.9017 130.593 66.9017 127.096C66.9017 123.598 69.7378 120.762 73.2358 120.762C76.7329 120.762 79.569 123.598 79.569 127.096Z" fill="#FF4D00"/>
<defs>
<linearGradient id="paint0_linear_926_258" x1="84.6333" y1="30.1694" x2="84.6333" y2="103.745" gradientUnits="userSpaceOnUse">
<stop stop-color="#73AAE1"/>
<stop offset="1" stop-color="#A0CBF6"/>
</linearGradient>
</defs>
</svg>
