<svg width="59" height="123" viewBox="0 0 59 123" fill="none" xmlns="http://www.w3.org/2000/svg">
<path d="M46.0377 90.8351C49.8956 90.8351 53.0874 87.8329 53.3233 83.9822L56.9164 25.3408C57.2823 19.3694 52.5381 14.3256 46.5555 14.3256H45.5198C39.5372 14.3256 34.793 19.3694 35.1589 25.3408L38.752 83.9822C38.988 87.8329 42.1797 90.8351 46.0377 90.8351ZM34.5647 111.295C34.5647 117.028 39.2121 121.676 44.945 121.676H47.1304C52.8633 121.676 57.5107 117.028 57.5107 111.296V109.675C57.5107 103.942 52.8633 99.2949 47.1304 99.2949H44.945C39.2121 99.2949 34.5647 103.942 34.5647 109.675V111.295Z" fill="#76ABE2" stroke="#76ABE2" stroke-width="2.55476"/>
<path d="M2.69774 12.7172L6.29085 71.3587C6.52679 75.2094 9.71856 78.2116 13.5765 78.2116C17.4344 78.2116 20.6262 75.2094 20.8621 71.3587L24.4552 12.7172C24.8211 6.74589 20.0769 1.70211 14.0944 1.70211H13.0586C7.07605 1.70211 2.33186 6.74587 2.69774 12.7172ZM2.10348 97.0516V98.672C2.10348 104.405 6.7509 109.052 12.4838 109.052H14.6692C20.4021 109.052 25.0495 104.405 25.0495 98.672V97.0516C25.0495 91.3188 20.4021 86.6713 14.6692 86.6713H12.4838C6.7509 86.6713 2.10348 91.3188 2.10348 97.0516Z" fill="#FF4D00" stroke="#FF4D00" stroke-width="2.55476"/>
</svg>
