<svg width="94" height="119" viewBox="0 0 94 119" fill="none" xmlns="http://www.w3.org/2000/svg">
<path d="M16.2357 68.5538H7.6941C3.44476 68.5538 0 65.109 0 60.8597C0 56.6104 3.44477 53.1656 7.69411 53.1656H16.2357V1.31401C21.0953 1.31401 26.3416 1.25826 31.9743 1.14675C37.6071 1.03524 43.2951 0.979492 49.0384 0.979492C78.9694 0.979492 93.935 12.4091 93.935 35.2684C93.935 45.6387 90.235 53.7789 82.8351 59.6889C75.4351 65.5988 65.0531 68.5538 51.6891 68.5538H36.4474V82.4366H55.9232C60.1726 82.4366 63.6173 85.8814 63.6173 90.1307C63.6173 94.3801 60.1726 97.8248 55.9232 97.8248H36.4474V108.292C36.4474 113.874 31.9229 118.398 26.3416 118.398C20.7602 118.398 16.2357 113.874 16.2357 108.292V97.8248H7.6941C3.44476 97.8248 0 94.3801 0 90.1307C0 85.8814 3.44477 82.4366 7.69411 82.4366H16.2357V68.5538ZM51.1921 20.2148C51.0816 20.2148 46.1668 20.3263 36.4474 20.5493V53.1656H51.0264C65.274 53.1656 72.3979 47.8132 72.3979 37.1083C72.3979 31.1984 70.6307 26.9053 67.0964 24.2291C63.6726 21.5529 58.3711 20.2148 51.1921 20.2148Z" fill="#76ABE2"/>
</svg>
