<svg width="65" height="65" viewBox="0 0 65 65" fill="none" xmlns="http://www.w3.org/2000/svg">
<path d="M32.3116 0.852539C14.7382 0.852539 0.424438 15.1663 0.424438 32.7397C0.424438 50.3131 14.7382 64.6269 32.3116 64.6269C49.885 64.6269 64.1988 50.3131 64.1988 32.7397C64.1988 15.1663 49.885 0.852539 32.3116 0.852539ZM42.9407 33.8026C41.6654 35.5741 40.1065 37.2038 38.4056 38.9046C36.7048 40.6054 35.0752 42.235 33.3037 43.4396C27.4223 47.6203 21.6826 48.9668 19.2024 46.4864L16.9347 44.2186C16.3677 43.581 17.2179 41.8095 18.848 40.1793C20.4777 38.5496 22.3203 37.6989 22.8873 38.2659L24.942 40.3206L24.8002 40.1788C26.2172 41.5959 28.9808 41.1708 31.9569 39.47C33.2322 38.6905 34.5079 37.5566 35.7125 36.352C36.9171 35.1474 37.9803 34.0136 38.7593 32.7382C40.6015 29.6915 41.0271 26.8568 39.6094 25.4396L39.7513 25.5815L37.6966 23.5268C37.1297 22.9598 37.9798 21.1177 39.61 19.4875C41.2396 17.8578 43.0822 17.0071 43.6493 17.5741L45.917 19.8419C48.468 22.2521 47.0509 27.921 42.9409 33.8027L42.9407 33.8026Z" fill="#FF4D00"/>
</svg>
