<svg width="59" height="57" viewBox="0 0 59 57" fill="none" xmlns="http://www.w3.org/2000/svg">
<path fill-rule="evenodd" clip-rule="evenodd" d="M28.1998 0.805342C25.3393 -1.22594 21.3785 0.819274 21.3785 4.32762L21.3785 10.2107L27.2196 13.9657L27.2196 7.27319L52.7934 25.4337V49.1432L36.3541 37.4693L37.8192 45.6736L51.8132 55.611C54.6736 57.6423 58.6344 55.5971 58.6344 52.0887V24.6483C58.6344 23.249 57.9566 21.9363 56.8156 21.1261L28.1998 0.805342Z" fill="#3B89D7"/>
<path d="M21.4929 36.3792C21.1926 36.6448 21.0206 37.0265 21.0206 37.4275V40.9301C21.0206 42.136 22.444 42.7773 23.3474 41.9784L35.1912 31.5026C35.7937 30.9697 35.8241 30.0399 35.2577 29.4688L23.4138 17.5264C22.5339 16.6391 21.0206 17.2623 21.0206 18.5119V22.7899C21.0206 23.1591 21.1665 23.5133 21.4264 23.7754L27.0728 29.4688C27.6392 30.0399 27.6088 30.9697 27.0063 31.5026L21.4929 36.3792Z" fill="#BDCEDE"/>
<path d="M5.61211 33.6683C5.19435 33.6683 4.79842 33.4816 4.53256 33.1594L1.88938 29.9555C1.13632 29.0427 1.78559 27.6654 2.96893 27.6654H27.2638C28.0367 27.6654 28.6633 28.2919 28.6633 29.0649V32.2687C28.6633 33.0417 28.0367 33.6683 27.2638 33.6683H5.61211Z" fill="#BDCEDE"/>
</svg>
