<svg width="148" height="162" viewBox="0 0 148 162" fill="none" xmlns="http://www.w3.org/2000/svg">
<path opacity="0.15" fill-rule="evenodd" clip-rule="evenodd" d="M63.4635 60.4443L2.50802 0.426601C1.57625 -0.490827 0 0.169246 0 1.47686L9.49384e-06 80.231C9.54144e-06 80.6258 0.15845 81.0042 0.439818 81.2812L81.6782 161.27C82.61 162.187 84.1862 161.527 84.1862 160.22V101.252L145.142 161.27C146.073 162.187 147.65 161.527 147.65 160.22V81.4655C147.65 81.0706 147.491 80.6923 147.21 80.4152L65.9715 0.426601C65.0397 -0.490827 63.4635 0.169246 63.4635 1.47686L63.4635 60.4443Z" fill="#65B2FF"/>
<mask id="mask0_917_263" style="mask-type:alpha" maskUnits="userSpaceOnUse" x="11" y="7" width="92" height="107">
<path d="M11 7V113.938H69.1711C73.5118 113.938 77.0306 110.42 77.0306 106.079V87.174C77.0306 83.7015 79.8457 80.8864 83.3182 80.8864H91.6952C97.8962 80.8864 102.923 75.8595 102.923 69.6585V7H11Z" fill="#D9D9D9"/>
</mask>
<g mask="url(#mask0_917_263)">
<path fill-rule="evenodd" clip-rule="evenodd" d="M57.4803 61.7687C59.2349 62.6668 61.1472 63.2804 63.1225 63.6544C64.393 63.8937 65.6654 64 66.9804 64H67.0824C68.3677 64 69.5659 63.8652 70.7492 63.6544C72.7505 63.3089 74.6794 62.6671 76.4342 61.7994C81.913 59.0918 86.1365 54.2443 87.9484 48.2005C88.592 46.091 89 43.8467 89 41.498C89 29.0671 79.0921 19 66.9786 19C60.0957 19 54.0029 22.3057 49.9689 27.4076C46.9012 31.2659 45 36.1439 45 41.4999C45 43.8638 45.3654 46.167 46.009 48.2763C47.8489 54.2438 52.059 59.0894 57.4803 61.7687Z" fill="url(#paint0_linear_917_263)"/>
<path fill-rule="evenodd" clip-rule="evenodd" d="M90.2705 73.0585L66.9987 73H43.3836C29.9348 73 18.7893 82.5353 15.8167 95.3594C15.3112 97.5156 15 99.7172 15 101.995V117.09C15 120.354 17.646 123 20.91 123L113.09 122.998C116.354 122.998 119 120.352 119 117.088V101.994C118.659 87.2647 107.303 73.0587 90.2732 73.0587L90.2705 73.0585Z" fill="url(#paint1_linear_917_263)"/>
</g>
<path fill-rule="evenodd" clip-rule="evenodd" d="M86.2098 91.6095C86.2098 90.5208 87.0924 89.6382 88.1811 89.6382H126.95C128.039 89.6382 128.922 90.5208 128.922 91.6095V146.149C128.922 147.238 128.039 148.12 126.95 148.12H88.1811C87.0924 148.12 86.2098 147.238 86.2098 146.149V91.6095ZM92.1237 96.209C92.1237 95.8461 92.4179 95.5519 92.7808 95.5519H96.7234C97.0863 95.5519 97.3805 95.8461 97.3805 96.209V102.78C97.3805 103.143 97.0863 103.437 96.7234 103.437H92.7808C92.4179 103.437 92.1237 103.143 92.1237 102.78V96.209ZM105.266 95.5519C104.903 95.5519 104.609 95.8461 104.609 96.209V102.78C104.609 103.143 104.903 103.437 105.266 103.437H109.866C110.229 103.437 110.523 103.143 110.523 102.78V96.209C110.523 95.8461 110.229 95.5519 109.866 95.5519H105.266ZM92.1237 110.008C92.1237 109.645 92.4179 109.351 92.7808 109.351H96.7234C97.0863 109.351 97.3805 109.645 97.3805 110.008V115.922C97.3805 116.285 97.0863 116.579 96.7234 116.579H92.7808C92.4179 116.579 92.1237 116.285 92.1237 115.922V110.008ZM92.7808 122.493C92.4179 122.493 92.1237 122.787 92.1237 123.15V129.721C92.1237 130.084 92.4179 130.378 92.7808 130.378H96.7234C97.0863 130.378 97.3805 130.084 97.3805 129.721V123.15C97.3805 122.787 97.0863 122.493 96.7234 122.493H92.7808ZM117.751 96.209C117.751 95.8461 118.045 95.5519 118.408 95.5519H122.351C122.713 95.5519 123.008 95.8461 123.008 96.209V102.78C123.008 103.143 122.713 103.437 122.351 103.437H118.408C118.045 103.437 117.751 103.143 117.751 102.78V96.209ZM105.266 109.351C104.903 109.351 104.609 109.645 104.609 110.008V115.922C104.609 116.285 104.903 116.579 105.266 116.579H109.866C110.229 116.579 110.523 116.285 110.523 115.922V110.008C110.523 109.645 110.229 109.351 109.866 109.351H105.266ZM104.609 123.15C104.609 122.787 104.903 122.493 105.266 122.493H109.866C110.229 122.493 110.523 122.787 110.523 123.15V129.721C110.523 130.084 110.229 130.378 109.866 130.378H105.266C104.903 130.378 104.609 130.084 104.609 129.721V123.15ZM118.408 109.351C118.045 109.351 117.751 109.645 117.751 110.008V115.922C117.751 116.285 118.045 116.579 118.408 116.579H122.351C122.713 116.579 123.008 116.285 123.008 115.922V110.008C123.008 109.645 122.713 109.351 122.351 109.351H118.408ZM117.751 123.15C117.751 122.787 118.045 122.493 118.408 122.493H122.351C122.713 122.493 123.008 122.787 123.008 123.15V129.721C123.008 130.084 122.713 130.378 122.351 130.378H118.408C118.045 130.378 117.751 130.084 117.751 129.721V123.15ZM102.109 136.395C101.746 136.395 101.452 136.689 101.452 137.052V144.532C101.452 144.894 101.746 145.189 102.109 145.189H113.106C113.469 145.189 113.763 144.894 113.763 144.532V137.052C113.763 136.689 113.469 136.395 113.106 136.395H102.109Z" fill="#FF4D00"/>
<defs>
<linearGradient id="paint0_linear_917_263" x1="67" y1="73" x2="67" y2="123" gradientUnits="userSpaceOnUse">
<stop stop-color="#76ADE3"/>
<stop offset="1" stop-color="#9CC7F4"/>
</linearGradient>
<linearGradient id="paint1_linear_917_263" x1="67" y1="73" x2="67" y2="123" gradientUnits="userSpaceOnUse">
<stop stop-color="#76ADE3"/>
<stop offset="1" stop-color="#9CC7F4"/>
</linearGradient>
</defs>
</svg>
