<svg width="43" height="60" viewBox="0 0 43 60" fill="none" xmlns="http://www.w3.org/2000/svg">
<path fill-rule="evenodd" clip-rule="evenodd" d="M0.209778 2.60949C0.209778 1.52077 1.09236 0.638184 2.18109 0.638184H40.9502C42.0389 0.638184 42.9215 1.52077 42.9215 2.60949V57.1491C42.9215 58.2378 42.0389 59.1204 40.9502 59.1204H2.18109C1.09236 59.1204 0.209778 58.2378 0.209778 57.1491V2.60949ZM6.12368 7.20902C6.12368 6.84611 6.41788 6.55192 6.78078 6.55192H10.7234C11.0863 6.55192 11.3805 6.84611 11.3805 7.20902V13.7801C11.3805 14.143 11.0863 14.4372 10.7234 14.4372H6.78078C6.41787 14.4372 6.12368 14.143 6.12368 13.7801V7.20902ZM19.2659 6.55192C18.903 6.55192 18.6088 6.84611 18.6088 7.20902V13.7801C18.6088 14.143 18.903 14.4372 19.2659 14.4372H23.8656C24.2285 14.4372 24.5227 14.143 24.5227 13.7801V7.20902C24.5227 6.84611 24.2285 6.55192 23.8656 6.55192H19.2659ZM6.12368 21.008C6.12368 20.6451 6.41788 20.3509 6.78078 20.3509H10.7234C11.0863 20.3509 11.3805 20.6451 11.3805 21.008V26.9219C11.3805 27.2848 11.0863 27.579 10.7234 27.579H6.78078C6.41787 27.579 6.12368 27.2848 6.12368 26.9219V21.008ZM6.78078 33.4931C6.41788 33.4931 6.12368 33.7873 6.12368 34.1502V40.7212C6.12368 41.0842 6.41787 41.3783 6.78078 41.3783H10.7234C11.0863 41.3783 11.3805 41.0842 11.3805 40.7212V34.1502C11.3805 33.7873 11.0863 33.4931 10.7234 33.4931H6.78078ZM31.7508 7.20902C31.7508 6.84611 32.045 6.55192 32.4079 6.55192H36.3506C36.7135 6.55192 37.0077 6.84611 37.0077 7.20902V13.7801C37.0077 14.143 36.7135 14.4372 36.3506 14.4372H32.4079C32.045 14.4372 31.7508 14.143 31.7508 13.7801V7.20902ZM19.2659 20.3509C18.903 20.3509 18.6088 20.6451 18.6088 21.008V26.9219C18.6088 27.2848 18.903 27.579 19.2659 27.579H23.8656C24.2285 27.579 24.5227 27.2848 24.5227 26.9219V21.008C24.5227 20.6451 24.2285 20.3509 23.8656 20.3509H19.2659ZM18.6088 34.1502C18.6088 33.7873 18.903 33.4931 19.2659 33.4931H23.8656C24.2285 33.4931 24.5227 33.7873 24.5227 34.1502V40.7212C24.5227 41.0842 24.2285 41.3783 23.8656 41.3783H19.2659C18.903 41.3783 18.6088 41.0842 18.6088 40.7212V34.1502ZM32.4079 20.3509C32.045 20.3509 31.7508 20.6451 31.7508 21.008V26.9219C31.7508 27.2848 32.045 27.579 32.4079 27.579H36.3506C36.7135 27.579 37.0077 27.2848 37.0077 26.9219V21.008C37.0077 20.6451 36.7135 20.3509 36.3506 20.3509H32.4079ZM31.7508 34.1502C31.7508 33.7873 32.045 33.4931 32.4079 33.4931H36.3506C36.7135 33.4931 37.0077 33.7873 37.0077 34.1502V40.7212C37.0077 41.0842 36.7135 41.3783 36.3506 41.3783H32.4079C32.045 41.3783 31.7508 41.0842 31.7508 40.7212V34.1502ZM16.1092 47.3951C15.7463 47.3951 15.4521 47.6893 15.4521 48.0522V55.5316C15.4521 55.8945 15.7463 56.1887 16.1092 56.1887H27.1061C27.469 56.1887 27.7632 55.8945 27.7632 55.5316V48.0522C27.7632 47.6893 27.469 47.3951 27.1061 47.3951H16.1092Z" fill="#FF4D00"/>
</svg>
