<svg width="840" height="1215" viewBox="0 0 840 1215" fill="none" xmlns="http://www.w3.org/2000/svg">
<path opacity="0.32" fill-rule="evenodd" clip-rule="evenodd" d="M840 617.256C840 610.692 837.377 604.401 832.715 599.781L660.917 429.537C645.387 414.148 619 425.149 619 447.012L619 596.744C619 603.308 621.623 609.599 626.285 614.219L798.083 784.463C813.613 799.852 840 788.851 840 766.988V617.256Z" fill="#E8F3FF"/>
<path opacity="0.32" fill-rule="evenodd" clip-rule="evenodd" d="M614.12 617.432C614.12 610.859 611.49 604.559 606.816 599.938L41.8965 41.4216C26.3589 26.0601 4.45008e-06 37.0665 7.07323e-06 58.9158L7.16603e-05 596.887C7.24494e-05 603.46 2.63056 609.76 7.30486 614.381L572.224 1172.9C587.762 1188.26 614.12 1177.25 614.12 1155.4V617.432Z" fill="#E8F3FF"/>
</svg>
