<svg width="191" height="250" viewBox="0 0 191 250" fill="none" xmlns="http://www.w3.org/2000/svg">
<path d="M189.811 90.7193C186.551 39.928 144.723 0 95.0172 0C45.3118 0 3.48311 39.928 0.223683 90.7193C-1.40603 113.264 5.92769 136.351 20.3241 155.638L88.5021 246.632C90.1318 248.805 92.5764 249.891 95.0209 249.891C97.4655 249.891 99.9101 248.805 101.54 246.632L169.718 155.638C184.383 136.352 191.444 113.265 189.814 90.7193H189.811ZM95.0172 119.51C74.1019 119.51 56.9899 102.398 56.9899 81.483C56.9899 60.5677 74.1019 43.4557 95.0172 43.4557C115.933 43.4557 133.045 60.5677 133.045 81.483C133.045 102.398 115.933 119.51 95.0172 119.51Z" fill="url(#paint0_linear_796_5259)"/>
<defs>
<linearGradient id="paint0_linear_796_5259" x1="95.0223" y1="0" x2="95.0223" y2="249.891" gradientUnits="userSpaceOnUse">
<stop stop-color="#6FA7DE"/>
<stop offset="1" stop-color="#93C4F5"/>
</linearGradient>
</defs>
</svg>
