<svg width="148" height="162" viewBox="0 0 148 162" fill="none" xmlns="http://www.w3.org/2000/svg">
<path opacity="0.15" fill-rule="evenodd" clip-rule="evenodd" d="M63.4635 60.4443L2.50802 0.426601C1.57625 -0.490827 -1.57634e-07 0.169246 0 1.47686L8.59246e-06 80.231C8.59246e-06 80.6258 0.15845 81.0042 0.439818 81.2812L81.6782 161.27C82.61 162.187 84.1862 161.527 84.1862 160.22V101.252L145.142 161.27C146.073 162.187 147.65 161.527 147.65 160.22V81.4655C147.65 81.0706 147.491 80.6923 147.21 80.4152L65.9715 0.426601C65.0397 -0.490827 63.4635 0.169246 63.4635 1.47686L63.4635 60.4443Z" fill="#65B2FF"/>
<path d="M76.7961 83.2711V130.812H124.337V83.2711H76.7961ZM109.48 101.099H91.6525C90.0117 101.099 88.6812 99.7683 88.6812 98.1275C88.6812 96.4867 90.0117 95.1562 91.6525 95.1562H109.48C111.121 95.1562 112.451 96.4867 112.451 98.1275C112.451 99.7683 111.121 101.099 109.48 101.099ZM23.3131 83.2711V130.812H70.8535V83.2711H23.3131ZM55.9971 101.099H38.1695C36.5286 101.099 35.1982 99.7683 35.1982 98.1275C35.1982 96.4867 36.5286 95.1562 38.1695 95.1562H55.9971C57.638 95.1562 58.9684 96.4867 58.9684 98.1275C58.9684 99.7683 57.638 101.099 55.9971 101.099ZM50.0546 29.7881V77.3285H97.595V29.7881H50.0546ZM82.7387 47.6158H64.911C63.2702 47.6158 61.9397 46.2853 61.9397 44.6445C61.9397 43.0037 63.2702 41.6732 64.911 41.6732H82.7387C84.3795 41.6732 85.7099 43.0037 85.7099 44.6445C85.7099 46.2853 84.3795 47.6158 82.7387 47.6158Z" fill="url(#paint0_linear_1019_260)"/>
<defs>
<linearGradient id="paint0_linear_1019_260" x1="73.8248" y1="29.7881" x2="73.8248" y2="130.812" gradientUnits="userSpaceOnUse">
<stop stop-color="#75ACE2"/>
<stop offset="1" stop-color="#9EC9F5"/>
</linearGradient>
</defs>
</svg>
