<svg width="48" height="48" viewBox="0 0 48 48" fill="none" xmlns="http://www.w3.org/2000/svg">
<path fill-rule="evenodd" clip-rule="evenodd" d="M0 3.30615V44.8466C0 46.5035 1.34315 47.8466 3 47.8466H44.5405C46.1973 47.8466 47.5405 46.5035 47.5405 44.8466V3.30616C47.5405 1.6493 46.1973 0.306152 44.5405 0.306152H3C1.34315 0.306152 0 1.6493 0 3.30615ZM32.6841 18.134H14.8564C13.2156 18.134 11.8851 16.8035 11.8851 15.1627C11.8851 13.5219 13.2156 12.1914 14.8564 12.1914H32.6841C34.3249 12.1914 35.6553 13.5219 35.6553 15.1627C35.6553 16.8035 34.3249 18.134 32.6841 18.134Z" fill="#FF4D00"/>
</svg>
